<mxfile host="65bd71144e">
    <diagram id="3bdLFTOizJktkAxhw_ly" name="Page-1">
        <mxGraphModel dx="6270" dy="6070" grid="1" gridSize="10" guides="1" tooltips="1" connect="1" arrows="1" fold="1" page="1" pageScale="1" pageWidth="850" pageHeight="1100" math="0" shadow="0">
            <root>
                <mxCell id="0"/>
                <mxCell id="1" parent="0"/>
                <UserObject label="" mermaidData="{&#xa;  &quot;data&quot;: &quot;classDiagram\n    class ObjetoMuseo {\n        &lt;&lt;abstract&gt;&gt;\n        +nombre: String\n        +getPrecio(): int\n        +getPeso(): int\n        +getCantidad(): int\n        +getMayorPrecio(): Articulo\n    }\n\n    class Articulo {\n        +descripcion: String\n        +peso: int\n        +getPrecio(): int\n        +getPeso(): int\n    }\n\n    class ArticuloEspecial {\n        +unidadesConocidas: int\n        +getPrecio(): int\n    }\n\n    class Coleccion {\n        +colecciones: List&lt;ObjetoMuseo&gt;\n        +getPeso(): int\n        +getPrecio(): int\n    }\n\n    class ColeccionPrivada {\n        +colecciones: List&lt;ObjetoMuseo&gt;\n        +getPeso(): int\n        +getPrecio(): int\n    }\n\n    class Condicion {\n        &lt;&lt;interface&gt;&gt;\n        +cumpleCon(Articulo): boolean\n    }\n\n    class CondicionContienePalabra {\n        -palabra: String\n        +cumpleCon(Articulo): boolean\n    }\n\n    class CondicionPrecioMayor {\n        -precioTope: int\n        +cumpleCon(Articulo): boolean\n    }\n\n    class CondicionPesoMayor {\n        -pesoTope: int\n        +cumpleCon(Articulo): boolean\n    }\n\n    class CondicionOR {\n        -c1: Condicion\n        -c2: Condicion\n        +cumpleCon(Articulo): boolean\n    }\n\n    class CondicionAND {\n        -c1: Condicion\n        -c2: Condicion\n        +cumpleCon(Articulo): boolean\n    }\n\n    ObjetoMuseo &lt;|-- Articulo\n    ObjetoMuseo &lt;|-- Coleccion\n    Coleccion &lt;|-- ColeccionPrivada\n    Articulo &lt;|-- ArticuloEspecial\n\n    Condicion &lt;|-- CondicionContienePalabra\n    Condicion &lt;|-- CondicionPrecioMayor\n    Condicion &lt;|-- CondicionPesoMayor\n    Condicion &lt;|-- CondicionOR\n    Condicion &lt;|-- CondicionAND\n&quot;&#xa;}" id="3">
                    <mxCell style="shape=image;noLabel=1;verticalAlign=top;imageAspect=1;image=data:image/svg+xml,PHN2ZyBhcmlhLXJvbGVkZXNjcmlwdGlvbj0iY2xhc3MiIHJvbGU9ImdyYXBoaWNzLWRvY3VtZW50IGRvY3VtZW50IiB2aWV3Qm94PSIwIDAgMjQ1Mi40MTEzNzY5NTMxMjUgNzE1Ljk1ODMxMjk4ODI4MTIiIHN0eWxlPSJtYXgtd2lkdGg6IDI0NTIuNDExMzc2OTUzMTI1cHg7IiBjbGFzcz0iY2xhc3NEaWFncmFtIiB4bWxucz0iaHR0cDovL3d3dy53My5vcmcvMjAwMC9zdmciIHdpZHRoPSIxMDAlIiBpZD0iZ2VNZXJtYWlkT3V0cHV0LTE3NDY5MzAyNDE2MDAiPjxzdHlsZT4jZ2VNZXJtYWlkT3V0cHV0LTE3NDY5MzAyNDE2MDB7Zm9udC1mYW1pbHk6InRyZWJ1Y2hldCBtcyIsdmVyZGFuYSxhcmlhbCxzYW5zLXNlcmlmO2ZvbnQtc2l6ZToxNnB4O2ZpbGw6IzAwMDAwMDt9I2dlTWVybWFpZE91dHB1dC0xNzQ2OTMwMjQxNjAwIC5lcnJvci1pY29ue2ZpbGw6IzU1MjIyMjt9I2dlTWVybWFpZE91dHB1dC0xNzQ2OTMwMjQxNjAwIC5lcnJvci10ZXh0e2ZpbGw6IzU1MjIyMjtzdHJva2U6IzU1MjIyMjt9I2dlTWVybWFpZE91dHB1dC0xNzQ2OTMwMjQxNjAwIC5lZGdlLXRoaWNrbmVzcy1ub3JtYWx7c3Ryb2tlLXdpZHRoOjFweDt9I2dlTWVybWFpZE91dHB1dC0xNzQ2OTMwMjQxNjAwIC5lZGdlLXRoaWNrbmVzcy10aGlja3tzdHJva2Utd2lkdGg6My41cHg7fSNnZU1lcm1haWRPdXRwdXQtMTc0NjkzMDI0MTYwMCAuZWRnZS1wYXR0ZXJuLXNvbGlke3N0cm9rZS1kYXNoYXJyYXk6MDt9I2dlTWVybWFpZE91dHB1dC0xNzQ2OTMwMjQxNjAwIC5lZGdlLXRoaWNrbmVzcy1pbnZpc2libGV7c3Ryb2tlLXdpZHRoOjA7ZmlsbDpub25lO30jZ2VNZXJtYWlkT3V0cHV0LTE3NDY5MzAyNDE2MDAgLmVkZ2UtcGF0dGVybi1kYXNoZWR7c3Ryb2tlLWRhc2hhcnJheTozO30jZ2VNZXJtYWlkT3V0cHV0LTE3NDY5MzAyNDE2MDAgLmVkZ2UtcGF0dGVybi1kb3R0ZWR7c3Ryb2tlLWRhc2hhcnJheToyO30jZ2VNZXJtYWlkT3V0cHV0LTE3NDY5MzAyNDE2MDAgLm1hcmtlcntmaWxsOiM2NjY7c3Ryb2tlOiM2NjY7fSNnZU1lcm1haWRPdXRwdXQtMTc0NjkzMDI0MTYwMCAubWFya2VyLmNyb3Nze3N0cm9rZTojNjY2O30jZ2VNZXJtYWlkT3V0cHV0LTE3NDY5MzAyNDE2MDAgc3Zne2ZvbnQtZmFtaWx5OiJ0cmVidWNoZXQgbXMiLHZlcmRhbmEsYXJpYWwsc2Fucy1zZXJpZjtmb250LXNpemU6MTZweDt9I2dlTWVybWFpZE91dHB1dC0xNzQ2OTMwMjQxNjAwIHB7bWFyZ2luOjA7fSNnZU1lcm1haWRPdXRwdXQtMTc0NjkzMDI0MTYwMCBnLmNsYXNzR3JvdXAgdGV4dHtmaWxsOiM5OTk7c3Ryb2tlOm5vbmU7Zm9udC1mYW1pbHk6InRyZWJ1Y2hldCBtcyIsdmVyZGFuYSxhcmlhbCxzYW5zLXNlcmlmO2ZvbnQtc2l6ZToxMHB4O30jZ2VNZXJtYWlkT3V0cHV0LTE3NDY5MzAyNDE2MDAgZy5jbGFzc0dyb3VwIHRleHQgLnRpdGxle2ZvbnQtd2VpZ2h0OmJvbGRlcjt9I2dlTWVybWFpZE91dHB1dC0xNzQ2OTMwMjQxNjAwIC5ub2RlTGFiZWwsI2dlTWVybWFpZE91dHB1dC0xNzQ2OTMwMjQxNjAwIC5lZGdlTGFiZWx7Y29sb3I6IzExMTExMTt9I2dlTWVybWFpZE91dHB1dC0xNzQ2OTMwMjQxNjAwIC5lZGdlTGFiZWwgLmxhYmVsIHJlY3R7ZmlsbDojZWVlO30jZ2VNZXJtYWlkT3V0cHV0LTE3NDY5MzAyNDE2MDAgLmxhYmVsIHRleHR7ZmlsbDojMTExMTExO30jZ2VNZXJtYWlkT3V0cHV0LTE3NDY5MzAyNDE2MDAgLmxhYmVsQmtne2JhY2tncm91bmQ6I2VlZTt9I2dlTWVybWFpZE91dHB1dC0xNzQ2OTMwMjQxNjAwIC5lZGdlTGFiZWwgLmxhYmVsIHNwYW57YmFja2dyb3VuZDojZWVlO30jZ2VNZXJtYWlkT3V0cHV0LTE3NDY5MzAyNDE2MDAgLmNsYXNzVGl0bGV7Zm9udC13ZWlnaHQ6Ym9sZGVyO30jZ2VNZXJtYWlkT3V0cHV0LTE3NDY5MzAyNDE2MDAgLm5vZGUgcmVjdCwjZ2VNZXJtYWlkT3V0cHV0LTE3NDY5MzAyNDE2MDAgLm5vZGUgY2lyY2xlLCNnZU1lcm1haWRPdXRwdXQtMTc0NjkzMDI0MTYwMCAubm9kZSBlbGxpcHNlLCNnZU1lcm1haWRPdXRwdXQtMTc0NjkzMDI0MTYwMCAubm9kZSBwb2x5Z29uLCNnZU1lcm1haWRPdXRwdXQtMTc0NjkzMDI0MTYwMCAubm9kZSBwYXRoe2ZpbGw6I2VlZTtzdHJva2U6Izk5OTtzdHJva2Utd2lkdGg6MXB4O30jZ2VNZXJtYWlkT3V0cHV0LTE3NDY5MzAyNDE2MDAgLmRpdmlkZXJ7c3Ryb2tlOiM5OTk7c3Ryb2tlLXdpZHRoOjE7fSNnZU1lcm1haWRPdXRwdXQtMTc0NjkzMDI0MTYwMCBnLmNsaWNrYWJsZXtjdXJzb3I6cG9pbnRlcjt9I2dlTWVybWFpZE91dHB1dC0xNzQ2OTMwMjQxNjAwIGcuY2xhc3NHcm91cCByZWN0e2ZpbGw6I2VlZTtzdHJva2U6Izk5OTt9I2dlTWVybWFpZE91dHB1dC0xNzQ2OTMwMjQxNjAwIGcuY2xhc3NHcm91cCBsaW5le3N0cm9rZTojOTk5O3N0cm9rZS13aWR0aDoxO30jZ2VNZXJtYWlkT3V0cHV0LTE3NDY5MzAyNDE2MDAgLmNsYXNzTGFiZWwgLmJveHtzdHJva2U6bm9uZTtzdHJva2Utd2lkdGg6MDtmaWxsOiNlZWU7b3BhY2l0eTowLjU7fSNnZU1lcm1haWRPdXRwdXQtMTc0NjkzMDI0MTYwMCAuY2xhc3NMYWJlbCAubGFiZWx7ZmlsbDojOTk5O2ZvbnQtc2l6ZToxMHB4O30jZ2VNZXJtYWlkT3V0cHV0LTE3NDY5MzAyNDE2MDAgLnJlbGF0aW9ue3N0cm9rZTojNjY2O3N0cm9rZS13aWR0aDoxO2ZpbGw6bm9uZTt9I2dlTWVybWFpZE91dHB1dC0xNzQ2OTMwMjQxNjAwIC5kYXNoZWQtbGluZXtzdHJva2UtZGFzaGFycmF5OjM7fSNnZU1lcm1haWRPdXRwdXQtMTc0NjkzMDI0MTYwMCAuZG90dGVkLWxpbmV7c3Ryb2tlLWRhc2hhcnJheToxIDI7fSNnZU1lcm1haWRPdXRwdXQtMTc0NjkzMDI0MTYwMCAjY29tcG9zaXRpb25TdGFydCwjZ2VNZXJtYWlkT3V0cHV0LTE3NDY5MzAyNDE2MDAgLmNvbXBvc2l0aW9ue2ZpbGw6IzY2NiFpbXBvcnRhbnQ7c3Ryb2tlOiM2NjYhaW1wb3J0YW50O3N0cm9rZS13aWR0aDoxO30jZ2VNZXJtYWlkT3V0cHV0LTE3NDY5MzAyNDE2MDAgI2NvbXBvc2l0aW9uRW5kLCNnZU1lcm1haWRPdXRwdXQtMTc0NjkzMDI0MTYwMCAuY29tcG9zaXRpb257ZmlsbDojNjY2IWltcG9ydGFudDtzdHJva2U6IzY2NiFpbXBvcnRhbnQ7c3Ryb2tlLXdpZHRoOjE7fSNnZU1lcm1haWRPdXRwdXQtMTc0NjkzMDI0MTYwMCAjZGVwZW5kZW5jeVN0YXJ0LCNnZU1lcm1haWRPdXRwdXQtMTc0NjkzMDI0MTYwMCAuZGVwZW5kZW5jeXtmaWxsOiM2NjYhaW1wb3J0YW50O3N0cm9rZTojNjY2IWltcG9ydGFudDtzdHJva2Utd2lkdGg6MTt9I2dlTWVybWFpZE91dHB1dC0xNzQ2OTMwMjQxNjAwICNkZXBlbmRlbmN5U3RhcnQsI2dlTWVybWFpZE91dHB1dC0xNzQ2OTMwMjQxNjAwIC5kZXBlbmRlbmN5e2ZpbGw6IzY2NiFpbXBvcnRhbnQ7c3Ryb2tlOiM2NjYhaW1wb3J0YW50O3N0cm9rZS13aWR0aDoxO30jZ2VNZXJtYWlkT3V0cHV0LTE3NDY5MzAyNDE2MDAgI2V4dGVuc2lvblN0YXJ0LCNnZU1lcm1haWRPdXRwdXQtMTc0NjkzMDI0MTYwMCAuZXh0ZW5zaW9ue2ZpbGw6dHJhbnNwYXJlbnQhaW1wb3J0YW50O3N0cm9rZTojNjY2IWltcG9ydGFudDtzdHJva2Utd2lkdGg6MTt9I2dlTWVybWFpZE91dHB1dC0xNzQ2OTMwMjQxNjAwICNleHRlbnNpb25FbmQsI2dlTWVybWFpZE91dHB1dC0xNzQ2OTMwMjQxNjAwIC5leHRlbnNpb257ZmlsbDp0cmFuc3BhcmVudCFpbXBvcnRhbnQ7c3Ryb2tlOiM2NjYhaW1wb3J0YW50O3N0cm9rZS13aWR0aDoxO30jZ2VNZXJtYWlkT3V0cHV0LTE3NDY5MzAyNDE2MDAgI2FnZ3JlZ2F0aW9uU3RhcnQsI2dlTWVybWFpZE91dHB1dC0xNzQ2OTMwMjQxNjAwIC5hZ2dyZWdhdGlvbntmaWxsOnRyYW5zcGFyZW50IWltcG9ydGFudDtzdHJva2U6IzY2NiFpbXBvcnRhbnQ7c3Ryb2tlLXdpZHRoOjE7fSNnZU1lcm1haWRPdXRwdXQtMTc0NjkzMDI0MTYwMCAjYWdncmVnYXRpb25FbmQsI2dlTWVybWFpZE91dHB1dC0xNzQ2OTMwMjQxNjAwIC5hZ2dyZWdhdGlvbntmaWxsOnRyYW5zcGFyZW50IWltcG9ydGFudDtzdHJva2U6IzY2NiFpbXBvcnRhbnQ7c3Ryb2tlLXdpZHRoOjE7fSNnZU1lcm1haWRPdXRwdXQtMTc0NjkzMDI0MTYwMCAjbG9sbGlwb3BTdGFydCwjZ2VNZXJtYWlkT3V0cHV0LTE3NDY5MzAyNDE2MDAgLmxvbGxpcG9we2ZpbGw6I2VlZSFpbXBvcnRhbnQ7c3Ryb2tlOiM2NjYhaW1wb3J0YW50O3N0cm9rZS13aWR0aDoxO30jZ2VNZXJtYWlkT3V0cHV0LTE3NDY5MzAyNDE2MDAgI2xvbGxpcG9wRW5kLCNnZU1lcm1haWRPdXRwdXQtMTc0NjkzMDI0MTYwMCAubG9sbGlwb3B7ZmlsbDojZWVlIWltcG9ydGFudDtzdHJva2U6IzY2NiFpbXBvcnRhbnQ7c3Ryb2tlLXdpZHRoOjE7fSNnZU1lcm1haWRPdXRwdXQtMTc0NjkzMDI0MTYwMCAuZWRnZVRlcm1pbmFsc3tmb250LXNpemU6MTFweDtsaW5lLWhlaWdodDppbml0aWFsO30jZ2VNZXJtYWlkT3V0cHV0LTE3NDY5MzAyNDE2MDAgLmNsYXNzVGl0bGVUZXh0e3RleHQtYW5jaG9yOm1pZGRsZTtmb250LXNpemU6MThweDtmaWxsOiMwMDAwMDA7fSNnZU1lcm1haWRPdXRwdXQtMTc0NjkzMDI0MTYwMCA6cm9vdHstLW1lcm1haWQtZm9udC1mYW1pbHk6InRyZWJ1Y2hldCBtcyIsdmVyZGFuYSxhcmlhbCxzYW5zLXNlcmlmO308L3N0eWxlPjxnPjxkZWZzPjxtYXJrZXIgb3JpZW50PSJhdXRvIiBtYXJrZXJIZWlnaHQ9IjI0MCIgbWFya2VyV2lkdGg9IjE5MCIgcmVmWT0iNyIgcmVmWD0iMTgiIGNsYXNzPSJtYXJrZXIgYWdncmVnYXRpb24gY2xhc3MiIGlkPSJnZU1lcm1haWRPdXRwdXQtMTc0NjkzMDI0MTYwMF9jbGFzcy1hZ2dyZWdhdGlvblN0YXJ0Ij48cGF0aCBkPSJNIDE4LDcgTDksMTMgTDEsNyBMOSwxIFoiPjwvcGF0aD48L21hcmtlcj48L2RlZnM+PGRlZnM+PG1hcmtlciBvcmllbnQ9ImF1dG8iIG1hcmtlckhlaWdodD0iMjgiIG1hcmtlcldpZHRoPSIyMCIgcmVmWT0iNyIgcmVmWD0iMSIgY2xhc3M9Im1hcmtlciBhZ2dyZWdhdGlvbiBjbGFzcyIgaWQ9ImdlTWVybWFpZE91dHB1dC0xNzQ2OTMwMjQxNjAwX2NsYXNzLWFnZ3JlZ2F0aW9uRW5kIj48cGF0aCBkPSJNIDE4LDcgTDksMTMgTDEsNyBMOSwxIFoiPjwvcGF0aD48L21hcmtlcj48L2RlZnM+PGRlZnM+PG1hcmtlciBvcmllbnQ9ImF1dG8iIG1hcmtlckhlaWdodD0iMjQwIiBtYXJrZXJXaWR0aD0iMTkwIiByZWZZPSI3IiByZWZYPSIxOCIgY2xhc3M9Im1hcmtlciBleHRlbnNpb24gY2xhc3MiIGlkPSJnZU1lcm1haWRPdXRwdXQtMTc0NjkzMDI0MTYwMF9jbGFzcy1leHRlbnNpb25TdGFydCI+PHBhdGggZD0iTSAxLDcgTDE4LDEzIFYgMSBaIj48L3BhdGg+PC9tYXJrZXI+PC9kZWZzPjxkZWZzPjxtYXJrZXIgb3JpZW50PSJhdXRvIiBtYXJrZXJIZWlnaHQ9IjI4IiBtYXJrZXJXaWR0aD0iMjAiIHJlZlk9IjciIHJlZlg9IjEiIGNsYXNzPSJtYXJrZXIgZXh0ZW5zaW9uIGNsYXNzIiBpZD0iZ2VNZXJtYWlkT3V0cHV0LTE3NDY5MzAyNDE2MDBfY2xhc3MtZXh0ZW5zaW9uRW5kIj48cGF0aCBkPSJNIDEsMSBWIDEzIEwxOCw3IFoiPjwvcGF0aD48L21hcmtlcj48L2RlZnM+PGRlZnM+PG1hcmtlciBvcmllbnQ9ImF1dG8iIG1hcmtlckhlaWdodD0iMjQwIiBtYXJrZXJXaWR0aD0iMTkwIiByZWZZPSI3IiByZWZYPSIxOCIgY2xhc3M9Im1hcmtlciBjb21wb3NpdGlvbiBjbGFzcyIgaWQ9ImdlTWVybWFpZE91dHB1dC0xNzQ2OTMwMjQxNjAwX2NsYXNzLWNvbXBvc2l0aW9uU3RhcnQiPjxwYXRoIGQ9Ik0gMTgsNyBMOSwxMyBMMSw3IEw5LDEgWiI+PC9wYXRoPjwvbWFya2VyPjwvZGVmcz48ZGVmcz48bWFya2VyIG9yaWVudD0iYXV0byIgbWFya2VySGVpZ2h0PSIyOCIgbWFya2VyV2lkdGg9IjIwIiByZWZZPSI3IiByZWZYPSIxIiBjbGFzcz0ibWFya2VyIGNvbXBvc2l0aW9uIGNsYXNzIiBpZD0iZ2VNZXJtYWlkT3V0cHV0LTE3NDY5MzAyNDE2MDBfY2xhc3MtY29tcG9zaXRpb25FbmQiPjxwYXRoIGQ9Ik0gMTgsNyBMOSwxMyBMMSw3IEw5LDEgWiI+PC9wYXRoPjwvbWFya2VyPjwvZGVmcz48ZGVmcz48bWFya2VyIG9yaWVudD0iYXV0byIgbWFya2VySGVpZ2h0PSIyNDAiIG1hcmtlcldpZHRoPSIxOTAiIHJlZlk9IjciIHJlZlg9IjYiIGNsYXNzPSJtYXJrZXIgZGVwZW5kZW5jeSBjbGFzcyIgaWQ9ImdlTWVybWFpZE91dHB1dC0xNzQ2OTMwMjQxNjAwX2NsYXNzLWRlcGVuZGVuY3lTdGFydCI+PHBhdGggZD0iTSA1LDcgTDksMTMgTDEsNyBMOSwxIFoiPjwvcGF0aD48L21hcmtlcj48L2RlZnM+PGRlZnM+PG1hcmtlciBvcmllbnQ9ImF1dG8iIG1hcmtlckhlaWdodD0iMjgiIG1hcmtlcldpZHRoPSIyMCIgcmVmWT0iNyIgcmVmWD0iMTMiIGNsYXNzPSJtYXJrZXIgZGVwZW5kZW5jeSBjbGFzcyIgaWQ9ImdlTWVybWFpZE91dHB1dC0xNzQ2OTMwMjQxNjAwX2NsYXNzLWRlcGVuZGVuY3lFbmQiPjxwYXRoIGQ9Ik0gMTgsNyBMOSwxMyBMMTQsNyBMOSwxIFoiPjwvcGF0aD48L21hcmtlcj48L2RlZnM+PGRlZnM+PG1hcmtlciBvcmllbnQ9ImF1dG8iIG1hcmtlckhlaWdodD0iMjQwIiBtYXJrZXJXaWR0aD0iMTkwIiByZWZZPSI3IiByZWZYPSIxMyIgY2xhc3M9Im1hcmtlciBsb2xsaXBvcCBjbGFzcyIgaWQ9ImdlTWVybWFpZE91dHB1dC0xNzQ2OTMwMjQxNjAwX2NsYXNzLWxvbGxpcG9wU3RhcnQiPjxjaXJjbGUgcj0iNiIgY3k9IjciIGN4PSI3IiBmaWxsPSJ0cmFuc3BhcmVudCIgc3Ryb2tlPSJibGFjayI+PC9jaXJjbGU+PC9tYXJrZXI+PC9kZWZzPjxkZWZzPjxtYXJrZXIgb3JpZW50PSJhdXRvIiBtYXJrZXJIZWlnaHQ9IjI0MCIgbWFya2VyV2lkdGg9IjE5MCIgcmVmWT0iNyIgcmVmWD0iMSIgY2xhc3M9Im1hcmtlciBsb2xsaXBvcCBjbGFzcyIgaWQ9ImdlTWVybWFpZE91dHB1dC0xNzQ2OTMwMjQxNjAwX2NsYXNzLWxvbGxpcG9wRW5kIj48Y2lyY2xlIHI9IjYiIGN5PSI3IiBjeD0iNyIgZmlsbD0idHJhbnNwYXJlbnQiIHN0cm9rZT0iYmxhY2siPjwvY2lyY2xlPjwvbWFya2VyPjwvZGVmcz48ZyBjbGFzcz0icm9vdCI+PGcgY2xhc3M9ImNsdXN0ZXJzIj48L2c+PGcgY2xhc3M9ImVkZ2VQYXRocyI+PHBhdGggbWFya2VyLXN0YXJ0PSJ1cmwoI2dlTWVybWFpZE91dHB1dC0xNzQ2OTMwMjQxNjAwX2NsYXNzLWV4dGVuc2lvblN0YXJ0KSIgc3R5bGU9IjsiIGNsYXNzPSJlZGdlLXRoaWNrbmVzcy1ub3JtYWwgZWRnZS1wYXR0ZXJuLXNvbGlkIHJlbGF0aW9uIiBpZD0iaWRfT2JqZXRvTXVzZW9fQXJ0aWN1bG9fMSIgZD0iTTE0OS4zMDQsMjYwLjcxNUwxNDcuMjYxLDI2Mi43NTlDMTQ1LjIxOSwyNjQuODA0LDE0MS4xMzMsMjY4Ljg5MywxMzkuMDksMjc1LjEwNEMxMzcuMDQ4LDI4MS4zMTUsMTM3LjA0OCwyODkuNjQ4LDEzNy4wNDgsMjkzLjgxNUwxMzcuMDQ4LDI5Ny45ODIiPjwvcGF0aD48cGF0aCBtYXJrZXItc3RhcnQ9InVybCgjZ2VNZXJtYWlkT3V0cHV0LTE3NDY5MzAyNDE2MDBfY2xhc3MtZXh0ZW5zaW9uU3RhcnQpIiBzdHlsZT0iOyIgY2xhc3M9ImVkZ2UtdGhpY2tuZXNzLW5vcm1hbCBlZGdlLXBhdHRlcm4tc29saWQgcmVsYXRpb24iIGlkPSJpZF9PYmpldG9NdXNlb19Db2xlY2Npb25fMiIgZD0iTTQxNC41MzMsMjYwLjcxNUw0MTYuNTc2LDI2Mi43NTlDNDE4LjYxOSwyNjQuODA0LDQyMi43MDQsMjY4Ljg5Myw0MjQuNzQ3LDI3Ny4xMDRDNDI2Ljc5LDI4NS4zMTUsNDI2Ljc5LDI5Ny42NDgsNDI2Ljc5LDMwMy44MTRMNDI2Ljc5LDMwOS45OCI+PC9wYXRoPjxwYXRoIG1hcmtlci1zdGFydD0idXJsKCNnZU1lcm1haWRPdXRwdXQtMTc0NjkzMDI0MTYwMF9jbGFzcy1leHRlbnNpb25TdGFydCkiIHN0eWxlPSI7IiBjbGFzcz0iZWRnZS10aGlja25lc3Mtbm9ybWFsIGVkZ2UtcGF0dGVybi1zb2xpZCByZWxhdGlvbiIgaWQ9ImlkX0NvbGVjY2lvbl9Db2xlY2Npb25Qcml2YWRhXzMiIGQ9Ik00MjYuNzksNDk1Ljk3TDQyNi43OSw0OTkuMTM2QzQyNi43OSw1MDIuMzAzLDQyNi43OSw1MDguNjM2LDQyNi43OSw1MTUuOTY5QzQyNi43OSw1MjMuMzAyLDQyNi43OSw1MzEuNjM1LDQyNi43OSw1MzUuODAyTDQyNi43OSw1MzkuOTY5Ij48L3BhdGg+PHBhdGggbWFya2VyLXN0YXJ0PSJ1cmwoI2dlTWVybWFpZE91dHB1dC0xNzQ2OTMwMjQxNjAwX2NsYXNzLWV4dGVuc2lvblN0YXJ0KSIgc3R5bGU9IjsiIGNsYXNzPSJlZGdlLXRoaWNrbmVzcy1ub3JtYWwgZWRnZS1wYXR0ZXJuLXNvbGlkIHJlbGF0aW9uIiBpZD0iaWRfQXJ0aWN1bG9fQXJ0aWN1bG9Fc3BlY2lhbF80IiBkPSJNMTM3LjA0OCw1MDcuOTY5TDEzNy4wNDgsNTA5LjEzNUMxMzcuMDQ4LDUxMC4zMDIsMTM3LjA0OCw1MTIuNjM1LDEzNy4wNDgsNTE5Ljk2OUMxMzcuMDQ4LDUyNy4zMDIsMTM3LjA0OCw1MzkuNjM1LDEzNy4wNDgsNTQ1LjgwMUwxMzcuMDQ4LDU1MS45NjciPjwvcGF0aD48cGF0aCBtYXJrZXItc3RhcnQ9InVybCgjZ2VNZXJtYWlkT3V0cHV0LTE3NDY5MzAyNDE2MDBfY2xhc3MtZXh0ZW5zaW9uU3RhcnQpIiBzdHlsZT0iOyIgY2xhc3M9ImVkZ2UtdGhpY2tuZXNzLW5vcm1hbCBlZGdlLXBhdHRlcm4tc29saWQgcmVsYXRpb24iIGlkPSJpZF9Db25kaWNpb25fQ29uZGljaW9uQ29udGllbmVQYWxhYnJhXzUiIGQ9Ik0xMzc5Ljc5NCwxNTguOTEyTDEyNzUuNDY3LDE3Ny45MjRDMTE3MS4xNDEsMTk2LjkzNSw5NjIuNDg3LDIzNC45NTksODU4LjE2LDI2Mi4xMzZDNzUzLjgzMywyODkuMzE0LDc1My44MzMsMzA1LjY0Nyw3NTMuODMzLDMxMy44MTNMNzUzLjgzMywzMjEuOTc5Ij48L3BhdGg+PHBhdGggbWFya2VyLXN0YXJ0PSJ1cmwoI2dlTWVybWFpZE91dHB1dC0xNzQ2OTMwMjQxNjAwX2NsYXNzLWV4dGVuc2lvblN0YXJ0KSIgc3R5bGU9IjsiIGNsYXNzPSJlZGdlLXRoaWNrbmVzcy1ub3JtYWwgZWRnZS1wYXR0ZXJuLXNvbGlkIHJlbGF0aW9uIiBpZD0iaWRfQ29uZGljaW9uX0NvbmRpY2lvblByZWNpb01heW9yXzYiIGQ9Ik0xMzgwLjYxOCwxOTAuMzc5TDEzNDMuMzU3LDIwNC4xNDZDMTMwNi4wOTUsMjE3LjkxMywxMjMxLjU3MiwyNDUuNDQ4LDExOTQuMzEsMjY3LjM4MUMxMTU3LjA0OSwyODkuMzE0LDExNTcuMDQ5LDMwNS42NDcsMTE1Ny4wNDksMzEzLjgxM0wxMTU3LjA0OSwzMjEuOTc5Ij48L3BhdGg+PHBhdGggbWFya2VyLXN0YXJ0PSJ1cmwoI2dlTWVybWFpZE91dHB1dC0xNzQ2OTMwMjQxNjAwX2NsYXNzLWV4dGVuc2lvblN0YXJ0KSIgc3R5bGU9IjsiIGNsYXNzPSJlZGdlLXRoaWNrbmVzcy1ub3JtYWwgZWRnZS1wYXR0ZXJuLXNvbGlkIHJlbGF0aW9uIiBpZD0iaWRfQ29uZGljaW9uX0NvbmRpY2lvblBlc29NYXlvcl83IiBkPSJNMTU0OS40NzcsMjIwLjk4N0wxNTQ5LjQ3NywyMjkuNjUzQzE1NDkuNDc3LDIzOC4zMTksMTU0OS40NzcsMjU1LjY1LDE1NDkuNDc3LDI3Mi40ODJDMTU0OS40NzcsMjg5LjMxNCwxNTQ5LjQ3NywzMDUuNjQ3LDE1NDkuNDc3LDMxMy44MTNMMTU0OS40NzcsMzIxLjk3OSI+PC9wYXRoPjxwYXRoIG1hcmtlci1zdGFydD0idXJsKCNnZU1lcm1haWRPdXRwdXQtMTc0NjkzMDI0MTYwMF9jbGFzcy1leHRlbnNpb25TdGFydCkiIHN0eWxlPSI7IiBjbGFzcz0iZWRnZS10aGlja25lc3Mtbm9ybWFsIGVkZ2UtcGF0dGVybi1zb2xpZCByZWxhdGlvbiIgaWQ9ImlkX0NvbmRpY2lvbl9Db25kaWNpb25PUl84IiBkPSJNMTcxOC4yMzcsMTkzLjMxTDE3NTIuNTQ0LDIwNi41ODhDMTc4Ni44NTIsMjE5Ljg2NywxODU1LjQ2NywyNDYuNDI0LDE4ODkuNzc0LDI2NS44N0MxOTI0LjA4MiwyODUuMzE1LDE5MjQuMDgyLDI5Ny42NDgsMTkyNC4wODIsMzAzLjgxNEwxOTI0LjA4MiwzMDkuOTgiPjwvcGF0aD48cGF0aCBtYXJrZXItc3RhcnQ9InVybCgjZ2VNZXJtYWlkT3V0cHV0LTE3NDY5MzAyNDE2MDBfY2xhc3MtZXh0ZW5zaW9uU3RhcnQpIiBzdHlsZT0iOyIgY2xhc3M9ImVkZ2UtdGhpY2tuZXNzLW5vcm1hbCBlZGdlLXBhdHRlcm4tc29saWQgcmVsYXRpb24iIGlkPSJpZF9Db25kaWNpb25fQ29uZGljaW9uQU5EXzkiIGQ9Ik0xNzE5LjExMiwxNjEuMzQ5TDE4MTMuNzI2LDE3OS45NTVDMTkwOC4zNCwxOTguNTYsMjA5Ny41NjgsMjM1Ljc3MSwyMTkyLjE4MiwyNjAuNTQzQzIyODYuNzk2LDI4NS4zMTUsMjI4Ni43OTYsMjk3LjY0OCwyMjg2Ljc5NiwzMDMuODE0TDIyODYuNzk2LDMwOS45OCI+PC9wYXRoPjwvZz48ZyBjbGFzcz0iZWRnZUxhYmVscyI+PGc+PHJlY3Qgc3R5bGU9InN0cm9rZTogbm9uZSIgY2xhc3M9ImJhY2tncm91bmQiPjwvcmVjdD48L2c+PGc+PHJlY3Qgc3R5bGU9InN0cm9rZTogbm9uZSIgY2xhc3M9ImJhY2tncm91bmQiPjwvcmVjdD48L2c+PGc+PHJlY3Qgc3R5bGU9InN0cm9rZTogbm9uZSIgY2xhc3M9ImJhY2tncm91bmQiPjwvcmVjdD48L2c+PGc+PHJlY3Qgc3R5bGU9InN0cm9rZTogbm9uZSIgY2xhc3M9ImJhY2tncm91bmQiPjwvcmVjdD48L2c+PGc+PHJlY3Qgc3R5bGU9InN0cm9rZTogbm9uZSIgY2xhc3M9ImJhY2tncm91bmQiPjwvcmVjdD48L2c+PGc+PHJlY3Qgc3R5bGU9InN0cm9rZTogbm9uZSIgY2xhc3M9ImJhY2tncm91bmQiPjwvcmVjdD48L2c+PGc+PHJlY3Qgc3R5bGU9InN0cm9rZTogbm9uZSIgY2xhc3M9ImJhY2tncm91bmQiPjwvcmVjdD48L2c+PGc+PHJlY3Qgc3R5bGU9InN0cm9rZTogbm9uZSIgY2xhc3M9ImJhY2tncm91bmQiPjwvcmVjdD48L2c+PGc+PHJlY3Qgc3R5bGU9InN0cm9rZTogbm9uZSIgY2xhc3M9ImJhY2tncm91bmQiPjwvcmVjdD48L2c+PGcgY2xhc3M9ImVkZ2VMYWJlbCI+PGcgdHJhbnNmb3JtPSJ0cmFuc2xhdGUoMCwgMCkiIGNsYXNzPSJsYWJlbCI+PHRleHQgeT0iLTEwLjEiPjx0c3BhbiBkeT0iMS4xZW0iIHk9Ii0wLjFlbSIgeD0iMCIgY2xhc3M9InRleHQtb3V0ZXItdHNwYW4iPjwvdHNwYW4+PC90ZXh0PjwvZz48L2c+PGcgY2xhc3M9ImVkZ2VMYWJlbCI+PGcgdHJhbnNmb3JtPSJ0cmFuc2xhdGUoMCwgMCkiIGNsYXNzPSJsYWJlbCI+PHRleHQgeT0iLTEwLjEiPjx0c3BhbiBkeT0iMS4xZW0iIHk9Ii0wLjFlbSIgeD0iMCIgY2xhc3M9InRleHQtb3V0ZXItdHNwYW4iPjwvdHNwYW4+PC90ZXh0PjwvZz48L2c+PGcgY2xhc3M9ImVkZ2VMYWJlbCI+PGcgdHJhbnNmb3JtPSJ0cmFuc2xhdGUoMCwgMCkiIGNsYXNzPSJsYWJlbCI+PHRleHQgeT0iLTEwLjEiPjx0c3BhbiBkeT0iMS4xZW0iIHk9Ii0wLjFlbSIgeD0iMCIgY2xhc3M9InRleHQtb3V0ZXItdHNwYW4iPjwvdHNwYW4+PC90ZXh0PjwvZz48L2c+PGcgY2xhc3M9ImVkZ2VMYWJlbCI+PGcgdHJhbnNmb3JtPSJ0cmFuc2xhdGUoMCwgMCkiIGNsYXNzPSJsYWJlbCI+PHRleHQgeT0iLTEwLjEiPjx0c3BhbiBkeT0iMS4xZW0iIHk9Ii0wLjFlbSIgeD0iMCIgY2xhc3M9InRleHQtb3V0ZXItdHNwYW4iPjwvdHNwYW4+PC90ZXh0PjwvZz48L2c+PGcgY2xhc3M9ImVkZ2VMYWJlbCI+PGcgdHJhbnNmb3JtPSJ0cmFuc2xhdGUoMCwgMCkiIGNsYXNzPSJsYWJlbCI+PHRleHQgeT0iLTEwLjEiPjx0c3BhbiBkeT0iMS4xZW0iIHk9Ii0wLjFlbSIgeD0iMCIgY2xhc3M9InRleHQtb3V0ZXItdHNwYW4iPjwvdHNwYW4+PC90ZXh0PjwvZz48L2c+PGcgY2xhc3M9ImVkZ2VMYWJlbCI+PGcgdHJhbnNmb3JtPSJ0cmFuc2xhdGUoMCwgMCkiIGNsYXNzPSJsYWJlbCI+PHRleHQgeT0iLTEwLjEiPjx0c3BhbiBkeT0iMS4xZW0iIHk9Ii0wLjFlbSIgeD0iMCIgY2xhc3M9InRleHQtb3V0ZXItdHNwYW4iPjwvdHNwYW4+PC90ZXh0PjwvZz48L2c+PGcgY2xhc3M9ImVkZ2VMYWJlbCI+PGcgdHJhbnNmb3JtPSJ0cmFuc2xhdGUoMCwgMCkiIGNsYXNzPSJsYWJlbCI+PHRleHQgeT0iLTEwLjEiPjx0c3BhbiBkeT0iMS4xZW0iIHk9Ii0wLjFlbSIgeD0iMCIgY2xhc3M9InRleHQtb3V0ZXItdHNwYW4iPjwvdHNwYW4+PC90ZXh0PjwvZz48L2c+PGcgY2xhc3M9ImVkZ2VMYWJlbCI+PGcgdHJhbnNmb3JtPSJ0cmFuc2xhdGUoMCwgMCkiIGNsYXNzPSJsYWJlbCI+PHRleHQgeT0iLTEwLjEiPjx0c3BhbiBkeT0iMS4xZW0iIHk9Ii0wLjFlbSIgeD0iMCIgY2xhc3M9InRleHQtb3V0ZXItdHNwYW4iPjwvdHNwYW4+PC90ZXh0PjwvZz48L2c+PGcgY2xhc3M9ImVkZ2VMYWJlbCI+PGcgdHJhbnNmb3JtPSJ0cmFuc2xhdGUoMCwgMCkiIGNsYXNzPSJsYWJlbCI+PHRleHQgeT0iLTEwLjEiPjx0c3BhbiBkeT0iMS4xZW0iIHk9Ii0wLjFlbSIgeD0iMCIgY2xhc3M9InRleHQtb3V0ZXItdHNwYW4iPjwvdHNwYW4+PC90ZXh0PjwvZz48L2c+PC9nPjxnIGNsYXNzPSJub2RlcyI+PGcgdHJhbnNmb3JtPSJ0cmFuc2xhdGUoMjgxLjkxODYyNDg3NzkyOTcsIDEyNy45OTA4ODI4NzM1MzUxNikiIGlkPSJjbGFzc0lkLU9iamV0b011c2VvLTQ3IiBjbGFzcz0ibm9kZSBkZWZhdWx0Ij48ZyBjbGFzcz0iYmFzaWMgbGFiZWwtY29udGFpbmVyIj48cGF0aCBzdHlsZT0iIiBmaWxsPSIjZWVlIiBzdHJva2Utd2lkdGg9IjAiIHN0cm9rZT0ibm9uZSIgZD0iTS0xNDIuMjU3MTU2MzcyMDcwMyAtMTE5Ljk5MDg4Mjg3MzUzNTE2IEwxNDIuMjU3MTU2MzcyMDcwMyAtMTE5Ljk5MDg4Mjg3MzUzNTE2IEwxNDIuMjU3MTU2MzcyMDcwMyAxMTkuOTkwODgyODczNTM1MTYgTC0xNDIuMjU3MTU2MzcyMDcwMyAxMTkuOTkwODgyODczNTM1MTYiPjwvcGF0aD48cGF0aCBzdHlsZT0iIiBmaWxsPSJub25lIiBzdHJva2Utd2lkdGg9IjEuMyIgc3Ryb2tlPSIjOTk5IiBkPSJNLTE0Mi4yNTcxNTYzNzIwNzAzIC0xMTkuOTkwODgyODczNTM1MTYgQy04NC42MjEyOTgyMDI4MzgxNiAtMTE5Ljk5MDg4Mjg3MzUzNTE2LCAtMjYuOTg1NDQwMDMzNjA2MDEgLTExOS45OTA4ODI4NzM1MzUxNiwgMTQyLjI1NzE1NjM3MjA3MDMgLTExOS45OTA4ODI4NzM1MzUxNiBNLTE0Mi4yNTcxNTYzNzIwNzAzIC0xMTkuOTkwODgyODczNTM1MTYgQy04MC4yNjM3ODE5MzYxNDI3OSAtMTE5Ljk5MDg4Mjg3MzUzNTE2LCAtMTguMjcwNDA3NTAwMjE1MjcgLTExOS45OTA4ODI4NzM1MzUxNiwgMTQyLjI1NzE1NjM3MjA3MDMgLTExOS45OTA4ODI4NzM1MzUxNiBNMTQyLjI1NzE1NjM3MjA3MDMgLTExOS45OTA4ODI4NzM1MzUxNiBDMTQyLjI1NzE1NjM3MjA3MDMgLTY5LjU1NDk1MjY4ODc3NzgsIDE0Mi4yNTcxNTYzNzIwNzAzIC0xOS4xMTkwMjI1MDQwMjA0NSwgMTQyLjI1NzE1NjM3MjA3MDMgMTE5Ljk5MDg4Mjg3MzUzNTE2IE0xNDIuMjU3MTU2MzcyMDcwMyAtMTE5Ljk5MDg4Mjg3MzUzNTE2IEMxNDIuMjU3MTU2MzcyMDcwMyAtNjUuODY5OTA5OTU5MTA4NjQsIDE0Mi4yNTcxNTYzNzIwNzAzIC0xMS43NDg5MzcwNDQ2ODIxMjMsIDE0Mi4yNTcxNTYzNzIwNzAzIDExOS45OTA4ODI4NzM1MzUxNiBNMTQyLjI1NzE1NjM3MjA3MDMgMTE5Ljk5MDg4Mjg3MzUzNTE2IEM3Mi42ODA1NDMzODQ2MzMyIDExOS45OTA4ODI4NzM1MzUxNiwgMy4xMDM5MzAzOTcxOTYwODA1IDExOS45OTA4ODI4NzM1MzUxNiwgLTE0Mi4yNTcxNTYzNzIwNzAzIDExOS45OTA4ODI4NzM1MzUxNiBNMTQyLjI1NzE1NjM3MjA3MDMgMTE5Ljk5MDg4Mjg3MzUzNTE2IEM2MS40MjM4NzUwOTcwOTAxNiAxMTkuOTkwODgyODczNTM1MTYsIC0xOS40MDk0MDYxNzc4ODk5OSAxMTkuOTkwODgyODczNTM1MTYsIC0xNDIuMjU3MTU2MzcyMDcwMyAxMTkuOTkwODgyODczNTM1MTYgTS0xNDIuMjU3MTU2MzcyMDcwMyAxMTkuOTkwODgyODczNTM1MTYgQy0xNDIuMjU3MTU2MzcyMDcwMyA1NC4wMzI1NjAzODI2ODUwNiwgLTE0Mi4yNTcxNTYzNzIwNzAzIC0xMS45MjU3NjIxMDgxNjUwMzEsIC0xNDIuMjU3MTU2MzcyMDcwMyAtMTE5Ljk5MDg4Mjg3MzUzNTE2IE0tMTQyLjI1NzE1NjM3MjA3MDMgMTE5Ljk5MDg4Mjg3MzUzNTE2IEMtMTQyLjI1NzE1NjM3MjA3MDMgNTcuOTM1NjE4MjYzODUyNzcsIC0xNDIuMjU3MTU2MzcyMDcwMyAtNC4xMTk2NDYzNDU4Mjk2MjIsIC0xNDIuMjU3MTU2MzcyMDcwMyAtMTE5Ljk5MDg4Mjg3MzUzNTE2Ij48L3BhdGg+PC9nPjxnIHRyYW5zZm9ybT0idHJhbnNsYXRlKC0zNy45MTAxNTYyNSwgLTk1Ljk5MDg4Mjg3MzUzNTE2KSIgY2xhc3M9ImFubm90YXRpb24tZ3JvdXAgdGV4dCI+PGcgdHJhbnNmb3JtPSJ0cmFuc2xhdGUoMCwtMTEuOTk4Njk3MjgwODgzNzg5KSIgc3R5bGU9IiIgY2xhc3M9ImxhYmVsIj48Zm9yZWlnbk9iamVjdCBoZWlnaHQ9IjIzLjk5NzM5NDU2MTc2NzU3OCIgd2lkdGg9Ijc1LjgyMDMxMjUiPjxkaXYgc3R5bGU9ImRpc3BsYXk6IHRhYmxlLWNlbGw7IHdoaXRlLXNwYWNlOiBub3dyYXA7IGxpbmUtaGVpZ2h0OiAxLjU7IG1heC13aWR0aDogMTIzcHg7IHRleHQtYWxpZ246IGNlbnRlcjsiIHhtbG5zPSJodHRwOi8vd3d3LnczLm9yZy8xOTk5L3hodG1sIj48c3BhbiBzdHlsZT0iIiBjbGFzcz0ibm9kZUxhYmVsIG1hcmtkb3duLW5vZGUtbGFiZWwiPjxwPsKrYWJzdHJhY3TCuzwvcD48L3NwYW4+PC9kaXY+PC9mb3JlaWduT2JqZWN0PjwvZz48L2c+PGcgdHJhbnNmb3JtPSJ0cmFuc2xhdGUoLTQ4Ljc2OTUzNTA2NDY5NzI2NiwgLTcxLjk5MzQ4ODMxMTc2NzU4KSIgY2xhc3M9ImxhYmVsLWdyb3VwIHRleHQiPjxnIHRyYW5zZm9ybT0idHJhbnNsYXRlKDAsLTExLjk5ODY5NzI4MDg4Mzc4OSkiIHN0eWxlPSJmb250LXdlaWdodDogYm9sZGVyIiBjbGFzcz0ibGFiZWwiPjxmb3JlaWduT2JqZWN0IGhlaWdodD0iMjMuOTk3Mzk0NTYxNzY3NTc4IiB3aWR0aD0iOTcuNTM5MDcwMTI5Mzk0NTMiPjxkaXYgc3R5bGU9ImRpc3BsYXk6IHRhYmxlLWNlbGw7IHdoaXRlLXNwYWNlOiBub3dyYXA7IGxpbmUtaGVpZ2h0OiAxLjU7IG1heC13aWR0aDogMTQ2cHg7IHRleHQtYWxpZ246IGNlbnRlcjsiIHhtbG5zPSJodHRwOi8vd3d3LnczLm9yZy8xOTk5L3hodG1sIj48c3BhbiBzdHlsZT0iIiBjbGFzcz0ibm9kZUxhYmVsIG1hcmtkb3duLW5vZGUtbGFiZWwiPjxwPk9iamV0b011c2VvPC9wPjwvc3Bhbj48L2Rpdj48L2ZvcmVpZ25PYmplY3Q+PC9nPjwvZz48ZyB0cmFuc2Zvcm09InRyYW5zbGF0ZSgtMTMwLjI1NzE1NjM3MjA3MDMsIC0yMy45OTYwOTM3NSkiIGNsYXNzPSJtZW1iZXJzLWdyb3VwIHRleHQiPjxnIHRyYW5zZm9ybT0idHJhbnNsYXRlKDAsLTExLjk5ODY5NzI4MDg4Mzc4OSkiIHN0eWxlPSIiIGNsYXNzPSJsYWJlbCI+PGZvcmVpZ25PYmplY3QgaGVpZ2h0PSIyMy45OTczOTQ1NjE3Njc1NzgiIHdpZHRoPSIxMTUuMTU2MjUiPjxkaXYgc3R5bGU9ImRpc3BsYXk6IHRhYmxlLWNlbGw7IHdoaXRlLXNwYWNlOiBub3dyYXA7IGxpbmUtaGVpZ2h0OiAxLjU7IG1heC13aWR0aDogMTczcHg7IHRleHQtYWxpZ246IGNlbnRlcjsiIHhtbG5zPSJodHRwOi8vd3d3LnczLm9yZy8xOTk5L3hodG1sIj48c3BhbiBzdHlsZT0iIiBjbGFzcz0ibm9kZUxhYmVsIG1hcmtkb3duLW5vZGUtbGFiZWwiPjxwPitub21icmU6IFN0cmluZzwvcD48L3NwYW4+PC9kaXY+PC9mb3JlaWduT2JqZWN0PjwvZz48L2c+PGcgdHJhbnNmb3JtPSJ0cmFuc2xhdGUoLTEzMC4yNTcxNTYzNzIwNzAzLCAyNC4wMDEzMDA4MTE3Njc1NzgpIiBjbGFzcz0ibWV0aG9kcy1ncm91cCB0ZXh0Ij48ZyB0cmFuc2Zvcm09InRyYW5zbGF0ZSgwLC0xMS45OTg2OTcyODA4ODM3ODkpIiBzdHlsZT0iIiBjbGFzcz0ibGFiZWwiPjxmb3JlaWduT2JqZWN0IGhlaWdodD0iMjMuOTk3Mzk0NTYxNzY3NTc4IiB3aWR0aD0iMTMzLjI5NDI2NTc0NzA3MDMiPjxkaXYgc3R5bGU9ImRpc3BsYXk6IHRhYmxlLWNlbGw7IHdoaXRlLXNwYWNlOiBub3dyYXA7IGxpbmUtaGVpZ2h0OiAxLjU7IG1heC13aWR0aDogMTgzcHg7IHRleHQtYWxpZ246IGNlbnRlcjsiIHhtbG5zPSJodHRwOi8vd3d3LnczLm9yZy8xOTk5L3hodG1sIj48c3BhbiBzdHlsZT0iIiBjbGFzcz0ibm9kZUxhYmVsIG1hcmtkb3duLW5vZGUtbGFiZWwiPjxwPitnZXRQcmVjaW8oKSA6IDogaW50PC9wPjwvc3Bhbj48L2Rpdj48L2ZvcmVpZ25PYmplY3Q+PC9nPjxnIHRyYW5zZm9ybT0idHJhbnNsYXRlKDAsMTEuOTk4Njk3MjgwODgzNzg5KSIgc3R5bGU9IiIgY2xhc3M9ImxhYmVsIj48Zm9yZWlnbk9iamVjdCBoZWlnaHQ9IjIzLjk5NzM5NDU2MTc2NzU3OCIgd2lkdGg9IjEyMS4wNjc3MDMyNDcwNzAzMSI+PGRpdiBzdHlsZT0iZGlzcGxheTogdGFibGUtY2VsbDsgd2hpdGUtc3BhY2U6IG5vd3JhcDsgbGluZS1oZWlnaHQ6IDEuNTsgbWF4LXdpZHRoOiAxNzJweDsgdGV4dC1hbGlnbjogY2VudGVyOyIgeG1sbnM9Imh0dHA6Ly93d3cudzMub3JnLzE5OTkveGh0bWwiPjxzcGFuIHN0eWxlPSIiIGNsYXNzPSJub2RlTGFiZWwgbWFya2Rvd24tbm9kZS1sYWJlbCI+PHA+K2dldFBlc28oKSA6IDogaW50PC9wPjwvc3Bhbj48L2Rpdj48L2ZvcmVpZ25PYmplY3Q+PC9nPjxnIHRyYW5zZm9ybT0idHJhbnNsYXRlKDAsMzUuOTk2MDkxODQyNjUxMzcpIiBzdHlsZT0iIiBjbGFzcz0ibGFiZWwiPjxmb3JlaWduT2JqZWN0IGhlaWdodD0iMjMuOTk3Mzk0NTYxNzY3NTc4IiB3aWR0aD0iMTUyLjk2ODc1Ij48ZGl2IHN0eWxlPSJkaXNwbGF5OiB0YWJsZS1jZWxsOyB3aGl0ZS1zcGFjZTogbm93cmFwOyBsaW5lLWhlaWdodDogMS41OyBtYXgtd2lkdGg6IDIwM3B4OyB0ZXh0LWFsaWduOiBjZW50ZXI7IiB4bWxucz0iaHR0cDovL3d3dy53My5vcmcvMTk5OS94aHRtbCI+PHNwYW4gc3R5bGU9IiIgY2xhc3M9Im5vZGVMYWJlbCBtYXJrZG93bi1ub2RlLWxhYmVsIj48cD4rZ2V0Q2FudGlkYWQoKSA6IDogaW50PC9wPjwvc3Bhbj48L2Rpdj48L2ZvcmVpZ25PYmplY3Q+PC9nPjxnIHRyYW5zZm9ybT0idHJhbnNsYXRlKDAsNTkuOTkzNDg2NDA0NDE4OTQ1KSIgc3R5bGU9IiIgY2xhc3M9ImxhYmVsIj48Zm9yZWlnbk9iamVjdCBoZWlnaHQ9IjIzLjk5NzM5NDU2MTc2NzU3OCIgd2lkdGg9IjIxMS43NDQ3ODE0OTQxNDA2MiI+PGRpdiBzdHlsZT0iZGlzcGxheTogdGFibGUtY2VsbDsgd2hpdGUtc3BhY2U6IG5vd3JhcDsgbGluZS1oZWlnaHQ6IDEuNTsgbWF4LXdpZHRoOiAyNjRweDsgdGV4dC1hbGlnbjogY2VudGVyOyIgeG1sbnM9Imh0dHA6Ly93d3cudzMub3JnLzE5OTkveGh0bWwiPjxzcGFuIHN0eWxlPSIiIGNsYXNzPSJub2RlTGFiZWwgbWFya2Rvd24tbm9kZS1sYWJlbCI+PHA+K2dldE1heW9yUHJlY2lvKCkgOiA6IEFydGljdWxvPC9wPjwvc3Bhbj48L2Rpdj48L2ZvcmVpZ25PYmplY3Q+PC9nPjwvZz48ZyBzdHlsZT0iIiBjbGFzcz0iZGl2aWRlciI+PHBhdGggc3R5bGU9IiIgZmlsbD0ibm9uZSIgc3Ryb2tlLXdpZHRoPSIxLjMiIHN0cm9rZT0iIzk5OSIgZD0iTS0xNDIuMjU3MTU2MzcyMDcwMyAtNDcuOTk2MDkzNzUgQy0zNC42NDcwMzU0NzgwNDgyMSAtNDcuOTk2MDkzNzUsIDcyLjk2MzA4NTQxNTk3MzkgLTQ3Ljk5NjA5Mzc1LCAxNDIuMjU3MTU2MzcyMDcwMyAtNDcuOTk2MDkzNzUgTS0xNDIuMjU3MTU2MzcyMDcwMyAtNDcuOTk2MDkzNzUgQy02OC4wNTYzNTE4MjM4MDQ2IC00Ny45OTYwOTM3NSwgNi4xNDQ0NTI3MjQ0NjExMDQgLTQ3Ljk5NjA5Mzc1LCAxNDIuMjU3MTU2MzcyMDcwMyAtNDcuOTk2MDkzNzUiPjwvcGF0aD48L2c+PGcgc3R5bGU9IiIgY2xhc3M9ImRpdmlkZXIiPjxwYXRoIHN0eWxlPSIiIGZpbGw9Im5vbmUiIHN0cm9rZS13aWR0aD0iMS4zIiBzdHJva2U9IiM5OTkiIGQ9Ik0tMTQyLjI1NzE1NjM3MjA3MDMgMC4wMDEzMDA4MTE3Njc1NzgxMjUgQy02MC44NDkxODMyNzI0MjM2MyAwLjAwMTMwMDgxMTc2NzU3ODEyNSwgMjAuNTU4Nzg5ODI3MjIzMDUyIDAuMDAxMzAwODExNzY3NTc4MTI1LCAxNDIuMjU3MTU2MzcyMDcwMyAwLjAwMTMwMDgxMTc2NzU3ODEyNSBNLTE0Mi4yNTcxNTYzNzIwNzAzIDAuMDAxMzAwODExNzY3NTc4MTI1IEMtNDkuNTY1ODExMjk4MjgxMTkgMC4wMDEzMDA4MTE3Njc1NzgxMjUsIDQzLjEyNTUzMzc3NTUwNzkzIDAuMDAxMzAwODExNzY3NTc4MTI1LCAxNDIuMjU3MTU2MzcyMDcwMyAwLjAwMTMwMDgxMTc2NzU3ODEyNSI+PC9wYXRoPjwvZz48L2c+PGcgdHJhbnNmb3JtPSJ0cmFuc2xhdGUoMTM3LjA0NzUzMTEyNzkyOTcsIDM5My45NzUyNTc4NzM1MzUxNikiIGlkPSJjbGFzc0lkLUFydGljdWxvLTQ4IiBjbGFzcz0ibm9kZSBkZWZhdWx0Ij48ZyBjbGFzcz0iYmFzaWMgbGFiZWwtY29udGFpbmVyIj48cGF0aCBzdHlsZT0iIiBmaWxsPSIjZWVlIiBzdHJva2Utd2lkdGg9IjAiIHN0cm9rZT0ibm9uZSIgZD0iTS05Ny45ODk1ODU4NzY0NjQ4NCAtOTUuOTkzNDkyMTI2NDY0ODQgTDk3Ljk4OTU4NTg3NjQ2NDg0IC05NS45OTM0OTIxMjY0NjQ4NCBMOTcuOTg5NTg1ODc2NDY0ODQgOTUuOTkzNDkyMTI2NDY0ODQgTC05Ny45ODk1ODU4NzY0NjQ4NCA5NS45OTM0OTIxMjY0NjQ4NCI+PC9wYXRoPjxwYXRoIHN0eWxlPSIiIGZpbGw9Im5vbmUiIHN0cm9rZS13aWR0aD0iMS4zIiBzdHJva2U9IiM5OTkiIGQ9Ik0tOTcuOTg5NTg1ODc2NDY0ODQgLTk1Ljk5MzQ5MjEyNjQ2NDg0IEMtNDAuODYxMDgxOTgzMjcxNDc1IC05NS45OTM0OTIxMjY0NjQ4NCwgMTYuMjY3NDIxOTA5OTIxODkzIC05NS45OTM0OTIxMjY0NjQ4NCwgOTcuOTg5NTg1ODc2NDY0ODQgLTk1Ljk5MzQ5MjEyNjQ2NDg0IE0tOTcuOTg5NTg1ODc2NDY0ODQgLTk1Ljk5MzQ5MjEyNjQ2NDg0IEMtNDguMzIzNjc3OTA3NDI4MjcgLTk1Ljk5MzQ5MjEyNjQ2NDg0LCAxLjM0MjIzMDA2MTYwODMwNSAtOTUuOTkzNDkyMTI2NDY0ODQsIDk3Ljk4OTU4NTg3NjQ2NDg0IC05NS45OTM0OTIxMjY0NjQ4NCBNOTcuOTg5NTg1ODc2NDY0ODQgLTk1Ljk5MzQ5MjEyNjQ2NDg0IEM5Ny45ODk1ODU4NzY0NjQ4NCAtNDEuNTUyMzM0NTcyODg4MzEsIDk3Ljk4OTU4NTg3NjQ2NDg0IDEyLjg4ODgyMjk4MDY4ODIxOCwgOTcuOTg5NTg1ODc2NDY0ODQgOTUuOTkzNDkyMTI2NDY0ODQgTTk3Ljk4OTU4NTg3NjQ2NDg0IC05NS45OTM0OTIxMjY0NjQ4NCBDOTcuOTg5NTg1ODc2NDY0ODQgLTM0LjI5NTU4NzQwOTY5NDEsIDk3Ljk4OTU4NTg3NjQ2NDg0IDI3LjQwMjMxNzMwNzA3NjY0MywgOTcuOTg5NTg1ODc2NDY0ODQgOTUuOTkzNDkyMTI2NDY0ODQgTTk3Ljk4OTU4NTg3NjQ2NDg0IDk1Ljk5MzQ5MjEyNjQ2NDg0IEM1MC4zMzkzNzA2NDUyODkzIDk1Ljk5MzQ5MjEyNjQ2NDg0LCAyLjY4OTE1NTQxNDExMzc1NiA5NS45OTM0OTIxMjY0NjQ4NCwgLTk3Ljk4OTU4NTg3NjQ2NDg0IDk1Ljk5MzQ5MjEyNjQ2NDg0IE05Ny45ODk1ODU4NzY0NjQ4NCA5NS45OTM0OTIxMjY0NjQ4NCBDNDAuMDA1Mzk4OTE1NjkyMjYgOTUuOTkzNDkyMTI2NDY0ODQsIC0xNy45Nzg3ODgwNDUwODAzMiA5NS45OTM0OTIxMjY0NjQ4NCwgLTk3Ljk4OTU4NTg3NjQ2NDg0IDk1Ljk5MzQ5MjEyNjQ2NDg0IE0tOTcuOTg5NTg1ODc2NDY0ODQgOTUuOTkzNDkyMTI2NDY0ODQgQy05Ny45ODk1ODU4NzY0NjQ4NCA1Mi44NTAxMTMwNzQ5MzY2LCAtOTcuOTg5NTg1ODc2NDY0ODQgOS43MDY3MzQwMjM0MDgzNTksIC05Ny45ODk1ODU4NzY0NjQ4NCAtOTUuOTkzNDkyMTI2NDY0ODQgTS05Ny45ODk1ODU4NzY0NjQ4NCA5NS45OTM0OTIxMjY0NjQ4NCBDLTk3Ljk4OTU4NTg3NjQ2NDg0IDMxLjM0Njc4NzM5NTQyMTYxNSwgLTk3Ljk4OTU4NTg3NjQ2NDg0IC0zMy4yOTk5MTczMzU2MjE2MTUsIC05Ny45ODk1ODU4NzY0NjQ4NCAtOTUuOTkzNDkyMTI2NDY0ODQiPjwvcGF0aD48L2c+PGcgdHJhbnNmb3JtPSJ0cmFuc2xhdGUoMCwgLTcxLjk5MzQ5MjEyNjQ2NDg0KSIgY2xhc3M9ImFubm90YXRpb24tZ3JvdXAgdGV4dCI+PC9nPjxnIHRyYW5zZm9ybT0idHJhbnNsYXRlKC0yOS43NTI2MDM1MzA4ODM3OSwgLTcxLjk5MzQ5MjEyNjQ2NDg0KSIgY2xhc3M9ImxhYmVsLWdyb3VwIHRleHQiPjxnIHRyYW5zZm9ybT0idHJhbnNsYXRlKDAsLTExLjk5ODY5NzI4MDg4Mzc4OSkiIHN0eWxlPSJmb250LXdlaWdodDogYm9sZGVyIiBjbGFzcz0ibGFiZWwiPjxmb3JlaWduT2JqZWN0IGhlaWdodD0iMjMuOTk3Mzk0NTYxNzY3NTc4IiB3aWR0aD0iNTkuNTA1MjA3MDYxNzY3NTgiPjxkaXYgc3R5bGU9ImRpc3BsYXk6IHRhYmxlLWNlbGw7IHdoaXRlLXNwYWNlOiBub3dyYXA7IGxpbmUtaGVpZ2h0OiAxLjU7IG1heC13aWR0aDogMTA2cHg7IHRleHQtYWxpZ246IGNlbnRlcjsiIHhtbG5zPSJodHRwOi8vd3d3LnczLm9yZy8xOTk5L3hodG1sIj48c3BhbiBzdHlsZT0iIiBjbGFzcz0ibm9kZUxhYmVsIG1hcmtkb3duLW5vZGUtbGFiZWwiPjxwPkFydGljdWxvPC9wPjwvc3Bhbj48L2Rpdj48L2ZvcmVpZ25PYmplY3Q+PC9nPjwvZz48ZyB0cmFuc2Zvcm09InRyYW5zbGF0ZSgtODUuOTg5NTg1ODc2NDY0ODQsIC0yMy45OTYwOTc1NjQ2OTcyNjYpIiBjbGFzcz0ibWVtYmVycy1ncm91cCB0ZXh0Ij48ZyB0cmFuc2Zvcm09InRyYW5zbGF0ZSgwLC0xMS45OTg2OTcyODA4ODM3ODkpIiBzdHlsZT0iIiBjbGFzcz0ibGFiZWwiPjxmb3JlaWduT2JqZWN0IGhlaWdodD0iMjMuOTk3Mzk0NTYxNzY3NTc4IiB3aWR0aD0iMTQyLjIyNjU2MjUiPjxkaXYgc3R5bGU9ImRpc3BsYXk6IHRhYmxlLWNlbGw7IHdoaXRlLXNwYWNlOiBub3dyYXA7IGxpbmUtaGVpZ2h0OiAxLjU7IG1heC13aWR0aDogMTk4cHg7IHRleHQtYWxpZ246IGNlbnRlcjsiIHhtbG5zPSJodHRwOi8vd3d3LnczLm9yZy8xOTk5L3hodG1sIj48c3BhbiBzdHlsZT0iIiBjbGFzcz0ibm9kZUxhYmVsIG1hcmtkb3duLW5vZGUtbGFiZWwiPjxwPitkZXNjcmlwY2lvbjogU3RyaW5nPC9wPjwvc3Bhbj48L2Rpdj48L2ZvcmVpZ25PYmplY3Q+PC9nPjxnIHRyYW5zZm9ybT0idHJhbnNsYXRlKDAsMTEuOTk4Njk3MjgwODgzNzg5KSIgc3R5bGU9IiIgY2xhc3M9ImxhYmVsIj48Zm9yZWlnbk9iamVjdCBoZWlnaHQ9IjIzLjk5NzM5NDU2MTc2NzU3OCIgd2lkdGg9IjcxLjQ0NTMxMjUiPjxkaXYgc3R5bGU9ImRpc3BsYXk6IHRhYmxlLWNlbGw7IHdoaXRlLXNwYWNlOiBub3dyYXA7IGxpbmUtaGVpZ2h0OiAxLjU7IG1heC13aWR0aDogMTI4cHg7IHRleHQtYWxpZ246IGNlbnRlcjsiIHhtbG5zPSJodHRwOi8vd3d3LnczLm9yZy8xOTk5L3hodG1sIj48c3BhbiBzdHlsZT0iIiBjbGFzcz0ibm9kZUxhYmVsIG1hcmtkb3duLW5vZGUtbGFiZWwiPjxwPitwZXNvOiBpbnQ8L3A+PC9zcGFuPjwvZGl2PjwvZm9yZWlnbk9iamVjdD48L2c+PC9nPjxnIHRyYW5zZm9ybT0idHJhbnNsYXRlKC04NS45ODk1ODU4NzY0NjQ4NCwgNDcuOTk4NjkxNTU4ODM3ODkpIiBjbGFzcz0ibWV0aG9kcy1ncm91cCB0ZXh0Ij48ZyB0cmFuc2Zvcm09InRyYW5zbGF0ZSgwLC0xMS45OTg2OTcyODA4ODM3ODkpIiBzdHlsZT0iIiBjbGFzcz0ibGFiZWwiPjxmb3JlaWduT2JqZWN0IGhlaWdodD0iMjMuOTk3Mzk0NTYxNzY3NTc4IiB3aWR0aD0iMTMzLjI5NDI2NTc0NzA3MDMiPjxkaXYgc3R5bGU9ImRpc3BsYXk6IHRhYmxlLWNlbGw7IHdoaXRlLXNwYWNlOiBub3dyYXA7IGxpbmUtaGVpZ2h0OiAxLjU7IG1heC13aWR0aDogMTgzcHg7IHRleHQtYWxpZ246IGNlbnRlcjsiIHhtbG5zPSJodHRwOi8vd3d3LnczLm9yZy8xOTk5L3hodG1sIj48c3BhbiBzdHlsZT0iIiBjbGFzcz0ibm9kZUxhYmVsIG1hcmtkb3duLW5vZGUtbGFiZWwiPjxwPitnZXRQcmVjaW8oKSA6IDogaW50PC9wPjwvc3Bhbj48L2Rpdj48L2ZvcmVpZ25PYmplY3Q+PC9nPjxnIHRyYW5zZm9ybT0idHJhbnNsYXRlKDAsMTEuOTk4Njk3MjgwODgzNzg5KSIgc3R5bGU9IiIgY2xhc3M9ImxhYmVsIj48Zm9yZWlnbk9iamVjdCBoZWlnaHQ9IjIzLjk5NzM5NDU2MTc2NzU3OCIgd2lkdGg9IjEyMS4wNjc3MDMyNDcwNzAzMSI+PGRpdiBzdHlsZT0iZGlzcGxheTogdGFibGUtY2VsbDsgd2hpdGUtc3BhY2U6IG5vd3JhcDsgbGluZS1oZWlnaHQ6IDEuNTsgbWF4LXdpZHRoOiAxNzJweDsgdGV4dC1hbGlnbjogY2VudGVyOyIgeG1sbnM9Imh0dHA6Ly93d3cudzMub3JnLzE5OTkveGh0bWwiPjxzcGFuIHN0eWxlPSIiIGNsYXNzPSJub2RlTGFiZWwgbWFya2Rvd24tbm9kZS1sYWJlbCI+PHA+K2dldFBlc28oKSA6IDogaW50PC9wPjwvc3Bhbj48L2Rpdj48L2ZvcmVpZ25PYmplY3Q+PC9nPjwvZz48ZyBzdHlsZT0iIiBjbGFzcz0iZGl2aWRlciI+PHBhdGggc3R5bGU9IiIgZmlsbD0ibm9uZSIgc3Ryb2tlLXdpZHRoPSIxLjMiIHN0cm9rZT0iIzk5OSIgZD0iTS05Ny45ODk1ODU4NzY0NjQ4NCAtNDcuOTk2MDk3NTY0Njk3MjY2IEMtMjEuODk5ODI1Mzc2MTEyOTQzIC00Ny45OTYwOTc1NjQ2OTcyNjYsIDU0LjE4OTkzNTEyNDIzODk2IC00Ny45OTYwOTc1NjQ2OTcyNjYsIDk3Ljk4OTU4NTg3NjQ2NDg0IC00Ny45OTYwOTc1NjQ2OTcyNjYgTS05Ny45ODk1ODU4NzY0NjQ4NCAtNDcuOTk2MDk3NTY0Njk3MjY2IEMtMjcuMDk0NzcwOTI0MDAyMjIgLTQ3Ljk5NjA5NzU2NDY5NzI2NiwgNDMuODAwMDQ0MDI4NDYwNDA1IC00Ny45OTYwOTc1NjQ2OTcyNjYsIDk3Ljk4OTU4NTg3NjQ2NDg0IC00Ny45OTYwOTc1NjQ2OTcyNjYiPjwvcGF0aD48L2c+PGcgc3R5bGU9IiIgY2xhc3M9ImRpdmlkZXIiPjxwYXRoIHN0eWxlPSIiIGZpbGw9Im5vbmUiIHN0cm9rZS13aWR0aD0iMS4zIiBzdHJva2U9IiM5OTkiIGQ9Ik0tOTcuOTg5NTg1ODc2NDY0ODQgMjMuOTk4NjkxNTU4ODM3ODkgQy0yNC44NTYyNTQ4NjA1NDAxMDUgMjMuOTk4NjkxNTU4ODM3ODksIDQ4LjI3NzA3NjE1NTM4NDYzNCAyMy45OTg2OTE1NTg4Mzc4OSwgOTcuOTg5NTg1ODc2NDY0ODQgMjMuOTk4NjkxNTU4ODM3ODkgTS05Ny45ODk1ODU4NzY0NjQ4NCAyMy45OTg2OTE1NTg4Mzc4OSBDLTIxLjIzMDA4ODU2NjY0NTE2NSAyMy45OTg2OTE1NTg4Mzc4OSwgNTUuNTI5NDA4NzQzMTc0NTE0IDIzLjk5ODY5MTU1ODgzNzg5LCA5Ny45ODk1ODU4NzY0NjQ4NCAyMy45OTg2OTE1NTg4Mzc4OSI+PC9wYXRoPjwvZz48L2c+PGcgdHJhbnNmb3JtPSJ0cmFuc2xhdGUoMTM3LjA0NzUzMTEyNzkyOTcsIDYyMy45NjM1MzkxMjM1MzUyKSIgaWQ9ImNsYXNzSWQtQXJ0aWN1bG9Fc3BlY2lhbC00OSIgY2xhc3M9Im5vZGUgZGVmYXVsdCI+PGcgY2xhc3M9ImJhc2ljIGxhYmVsLWNvbnRhaW5lciI+PHBhdGggc3R5bGU9IiIgZmlsbD0iI2VlZSIgc3Ryb2tlLXdpZHRoPSIwIiBzdHJva2U9Im5vbmUiIGQ9Ik0tMTI5LjA0NzUzMTEyNzkyOTcgLTcxLjk5NjA4OTkzNTMwMjczIEwxMjkuMDQ3NTMxMTI3OTI5NyAtNzEuOTk2MDg5OTM1MzAyNzMgTDEyOS4wNDc1MzExMjc5Mjk3IDcxLjk5NjA4OTkzNTMwMjczIEwtMTI5LjA0NzUzMTEyNzkyOTcgNzEuOTk2MDg5OTM1MzAyNzMiPjwvcGF0aD48cGF0aCBzdHlsZT0iIiBmaWxsPSJub25lIiBzdHJva2Utd2lkdGg9IjEuMyIgc3Ryb2tlPSIjOTk5IiBkPSJNLTEyOS4wNDc1MzExMjc5Mjk3IC03MS45OTYwODk5MzUzMDI3MyBDLTcyLjMwODg3MjM1MDQ4ODEyIC03MS45OTYwODk5MzUzMDI3MywgLTE1LjU3MDIxMzU3MzA0NjU0NCAtNzEuOTk2MDg5OTM1MzAyNzMsIDEyOS4wNDc1MzExMjc5Mjk3IC03MS45OTYwODk5MzUzMDI3MyBNLTEyOS4wNDc1MzExMjc5Mjk3IC03MS45OTYwODk5MzUzMDI3MyBDLTcyLjM1MTUxNDA2NzgyODQyIC03MS45OTYwODk5MzUzMDI3MywgLTE1LjY1NTQ5NzAwNzcyNzE2MyAtNzEuOTk2MDg5OTM1MzAyNzMsIDEyOS4wNDc1MzExMjc5Mjk3IC03MS45OTYwODk5MzUzMDI3MyBNMTI5LjA0NzUzMTEyNzkyOTcgLTcxLjk5NjA4OTkzNTMwMjczIEMxMjkuMDQ3NTMxMTI3OTI5NyAtMjQuOTA4NzIzMDI5NzI0NDc3LCAxMjkuMDQ3NTMxMTI3OTI5NyAyMi4xNzg2NDM4NzU4NTM3OCwgMTI5LjA0NzUzMTEyNzkyOTcgNzEuOTk2MDg5OTM1MzAyNzMgTTEyOS4wNDc1MzExMjc5Mjk3IC03MS45OTYwODk5MzUzMDI3MyBDMTI5LjA0NzUzMTEyNzkyOTcgLTE4LjU5MjkxNjE1MTEyNDgyNSwgMTI5LjA0NzUzMTEyNzkyOTcgMzQuODEwMjU3NjMzMDUzMDg0LCAxMjkuMDQ3NTMxMTI3OTI5NyA3MS45OTYwODk5MzUzMDI3MyBNMTI5LjA0NzUzMTEyNzkyOTcgNzEuOTk2MDg5OTM1MzAyNzMgQzY4Ljg2NDAxNTM5NTgzMTY0IDcxLjk5NjA4OTkzNTMwMjczLCA4LjY4MDQ5OTY2MzczMzU4NSA3MS45OTYwODk5MzUzMDI3MywgLTEyOS4wNDc1MzExMjc5Mjk3IDcxLjk5NjA4OTkzNTMwMjczIE0xMjkuMDQ3NTMxMTI3OTI5NyA3MS45OTYwODk5MzUzMDI3MyBDNzYuMTMyNjQwNTg3OTI0NzggNzEuOTk2MDg5OTM1MzAyNzMsIDIzLjIxNzc1MDA0NzkxOTg4IDcxLjk5NjA4OTkzNTMwMjczLCAtMTI5LjA0NzUzMTEyNzkyOTcgNzEuOTk2MDg5OTM1MzAyNzMgTS0xMjkuMDQ3NTMxMTI3OTI5NyA3MS45OTYwODk5MzUzMDI3MyBDLTEyOS4wNDc1MzExMjc5Mjk3IDIyLjgyMTM1MjkzNjg4NjMwNiwgLTEyOS4wNDc1MzExMjc5Mjk3IC0yNi4zNTMzODQwNjE1MzAxMiwgLTEyOS4wNDc1MzExMjc5Mjk3IC03MS45OTYwODk5MzUzMDI3MyBNLTEyOS4wNDc1MzExMjc5Mjk3IDcxLjk5NjA4OTkzNTMwMjczIEMtMTI5LjA0NzUzMTEyNzkyOTcgMjcuMTc1NDYxNDA1ODgwMDkzLCAtMTI5LjA0NzUzMTEyNzkyOTcgLTE3LjY0NTE2NzEyMzU0MjU1LCAtMTI5LjA0NzUzMTEyNzkyOTcgLTcxLjk5NjA4OTkzNTMwMjczIj48L3BhdGg+PC9nPjxnIHRyYW5zZm9ybT0idHJhbnNsYXRlKDAsIC00Ny45OTYwODk5MzUzMDI3MzQpIiBjbGFzcz0iYW5ub3RhdGlvbi1ncm91cCB0ZXh0Ij48L2c+PGcgdHJhbnNmb3JtPSJ0cmFuc2xhdGUoLTYwLjExMDY3NTgxMTc2NzU4LCAtNDcuOTk2MDg5OTM1MzAyNzM0KSIgY2xhc3M9ImxhYmVsLWdyb3VwIHRleHQiPjxnIHRyYW5zZm9ybT0idHJhbnNsYXRlKDAsLTExLjk5ODY5NzI4MDg4Mzc4OSkiIHN0eWxlPSJmb250LXdlaWdodDogYm9sZGVyIiBjbGFzcz0ibGFiZWwiPjxmb3JlaWduT2JqZWN0IGhlaWdodD0iMjMuOTk3Mzk0NTYxNzY3NTc4IiB3aWR0aD0iMTIwLjIyMTM1MTYyMzUzNTE2Ij48ZGl2IHN0eWxlPSJkaXNwbGF5OiB0YWJsZS1jZWxsOyB3aGl0ZS1zcGFjZTogbm93cmFwOyBsaW5lLWhlaWdodDogMS41OyBtYXgtd2lkdGg6IDE2MnB4OyB0ZXh0LWFsaWduOiBjZW50ZXI7IiB4bWxucz0iaHR0cDovL3d3dy53My5vcmcvMTk5OS94aHRtbCI+PHNwYW4gc3R5bGU9IiIgY2xhc3M9Im5vZGVMYWJlbCBtYXJrZG93bi1ub2RlLWxhYmVsIj48cD5BcnRpY3Vsb0VzcGVjaWFsPC9wPjwvc3Bhbj48L2Rpdj48L2ZvcmVpZ25PYmplY3Q+PC9nPjwvZz48ZyB0cmFuc2Zvcm09InRyYW5zbGF0ZSgtMTE3LjA0NzUzMTEyNzkyOTY5LCAwLjAwMTMwNDYyNjQ2NDg0Mzc1KSIgY2xhc3M9Im1lbWJlcnMtZ3JvdXAgdGV4dCI+PGcgdHJhbnNmb3JtPSJ0cmFuc2xhdGUoMCwtMTEuOTk4Njk3MjgwODgzNzg5KSIgc3R5bGU9IiIgY2xhc3M9ImxhYmVsIj48Zm9yZWlnbk9iamVjdCBoZWlnaHQ9IjIzLjk5NzM5NDU2MTc2NzU3OCIgd2lkdGg9IjE3My45ODQzOTAyNTg3ODkwNiI+PGRpdiBzdHlsZT0iZGlzcGxheTogdGFibGUtY2VsbDsgd2hpdGUtc3BhY2U6IG5vd3JhcDsgbGluZS1oZWlnaHQ6IDEuNTsgbWF4LXdpZHRoOiAyMzJweDsgdGV4dC1hbGlnbjogY2VudGVyOyIgeG1sbnM9Imh0dHA6Ly93d3cudzMub3JnLzE5OTkveGh0bWwiPjxzcGFuIHN0eWxlPSIiIGNsYXNzPSJub2RlTGFiZWwgbWFya2Rvd24tbm9kZS1sYWJlbCI+PHA+K3VuaWRhZGVzQ29ub2NpZGFzOiBpbnQ8L3A+PC9zcGFuPjwvZGl2PjwvZm9yZWlnbk9iamVjdD48L2c+PC9nPjxnIHRyYW5zZm9ybT0idHJhbnNsYXRlKC0xMTcuMDQ3NTMxMTI3OTI5NjksIDQ3Ljk5ODY5OTE4ODIzMjQyKSIgY2xhc3M9Im1ldGhvZHMtZ3JvdXAgdGV4dCI+PGcgdHJhbnNmb3JtPSJ0cmFuc2xhdGUoMCwtMTEuOTk4Njk3MjgwODgzNzg5KSIgc3R5bGU9IiIgY2xhc3M9ImxhYmVsIj48Zm9yZWlnbk9iamVjdCBoZWlnaHQ9IjIzLjk5NzM5NDU2MTc2NzU3OCIgd2lkdGg9IjEzMy4yOTQyNjU3NDcwNzAzIj48ZGl2IHN0eWxlPSJkaXNwbGF5OiB0YWJsZS1jZWxsOyB3aGl0ZS1zcGFjZTogbm93cmFwOyBsaW5lLWhlaWdodDogMS41OyBtYXgtd2lkdGg6IDE4M3B4OyB0ZXh0LWFsaWduOiBjZW50ZXI7IiB4bWxucz0iaHR0cDovL3d3dy53My5vcmcvMTk5OS94aHRtbCI+PHNwYW4gc3R5bGU9IiIgY2xhc3M9Im5vZGVMYWJlbCBtYXJrZG93bi1ub2RlLWxhYmVsIj48cD4rZ2V0UHJlY2lvKCkgOiA6IGludDwvcD48L3NwYW4+PC9kaXY+PC9mb3JlaWduT2JqZWN0PjwvZz48L2c+PGcgc3R5bGU9IiIgY2xhc3M9ImRpdmlkZXIiPjxwYXRoIHN0eWxlPSIiIGZpbGw9Im5vbmUiIHN0cm9rZS13aWR0aD0iMS4zIiBzdHJva2U9IiM5OTkiIGQ9Ik0tMTI5LjA0NzUzMTEyNzkyOTcgLTIzLjk5ODY5NTM3MzUzNTE1NiBDLTY3Ljk1MDkzNDQzOTA4NzA2IC0yMy45OTg2OTUzNzM1MzUxNTYsIC02Ljg1NDMzNzc1MDI0NDQ1NCAtMjMuOTk4Njk1MzczNTM1MTU2LCAxMjkuMDQ3NTMxMTI3OTI5NyAtMjMuOTk4Njk1MzczNTM1MTU2IE0tMTI5LjA0NzUzMTEyNzkyOTcgLTIzLjk5ODY5NTM3MzUzNTE1NiBDLTI5Ljg0MzUyOTEwMTg1NjkgLTIzLjk5ODY5NTM3MzUzNTE1NiwgNjkuMzYwNDcyOTI0MjE1ODggLTIzLjk5ODY5NTM3MzUzNTE1NiwgMTI5LjA0NzUzMTEyNzkyOTcgLTIzLjk5ODY5NTM3MzUzNTE1NiI+PC9wYXRoPjwvZz48ZyBzdHlsZT0iIiBjbGFzcz0iZGl2aWRlciI+PHBhdGggc3R5bGU9IiIgZmlsbD0ibm9uZSIgc3Ryb2tlLXdpZHRoPSIxLjMiIHN0cm9rZT0iIzk5OSIgZD0iTS0xMjkuMDQ3NTMxMTI3OTI5NyAyMy45OTg2OTkxODgyMzI0MjIgQy01OC43OTA0NDE3ODg5NDkyNSAyMy45OTg2OTkxODgyMzI0MjIsIDExLjQ2NjY0NzU1MDAzMTE4MyAyMy45OTg2OTkxODgyMzI0MjIsIDEyOS4wNDc1MzExMjc5Mjk3IDIzLjk5ODY5OTE4ODIzMjQyMiBNLTEyOS4wNDc1MzExMjc5Mjk3IDIzLjk5ODY5OTE4ODIzMjQyMiBDLTUyLjIzNTcxNjE2MDAxNDIzNSAyMy45OTg2OTkxODgyMzI0MjIsIDI0LjU3NjA5ODgwNzkwMTIxOCAyMy45OTg2OTkxODgyMzI0MjIsIDEyOS4wNDc1MzExMjc5Mjk3IDIzLjk5ODY5OTE4ODIzMjQyMiI+PC9wYXRoPjwvZz48L2c+PGcgdHJhbnNmb3JtPSJ0cmFuc2xhdGUoNDI2Ljc4OTcxODYyNzkyOTcsIDM5My45NzUyNTc4NzM1MzUxNikiIGlkPSJjbGFzc0lkLUNvbGVjY2lvbi01MCIgY2xhc3M9Im5vZGUgZGVmYXVsdCI+PGcgY2xhc3M9ImJhc2ljIGxhYmVsLWNvbnRhaW5lciI+PHBhdGggc3R5bGU9IiIgZmlsbD0iI2VlZSIgc3Ryb2tlLXdpZHRoPSIwIiBzdHJva2U9Im5vbmUiIGQ9Ik0tOTYuNzQ5MzQzODcyMDcwMzEgLTgzLjk5NDc4OTEyMzUzNTE2IEw5Ni43NDkzNDM4NzIwNzAzMSAtODMuOTk0Nzg5MTIzNTM1MTYgTDk2Ljc0OTM0Mzg3MjA3MDMxIDgzLjk5NDc4OTEyMzUzNTE2IEwtOTYuNzQ5MzQzODcyMDcwMzEgODMuOTk0Nzg5MTIzNTM1MTYiPjwvcGF0aD48cGF0aCBzdHlsZT0iIiBmaWxsPSJub25lIiBzdHJva2Utd2lkdGg9IjEuMyIgc3Ryb2tlPSIjOTk5IiBkPSJNLTk2Ljc0OTM0Mzg3MjA3MDMxIC04My45OTQ3ODkxMjM1MzUxNiBDLTU3LjYwMjM2NjYzMTY4MTgzIC04My45OTQ3ODkxMjM1MzUxNiwgLTE4LjQ1NTM4OTM5MTI5MzM1IC04My45OTQ3ODkxMjM1MzUxNiwgOTYuNzQ5MzQzODcyMDcwMzEgLTgzLjk5NDc4OTEyMzUzNTE2IE0tOTYuNzQ5MzQzODcyMDcwMzEgLTgzLjk5NDc4OTEyMzUzNTE2IEMtMjUuMzI0NTQwMDM3MTk5NDcgLTgzLjk5NDc4OTEyMzUzNTE2LCA0Ni4xMDAyNjM3OTc2NzEzNzQgLTgzLjk5NDc4OTEyMzUzNTE2LCA5Ni43NDkzNDM4NzIwNzAzMSAtODMuOTk0Nzg5MTIzNTM1MTYgTTk2Ljc0OTM0Mzg3MjA3MDMxIC04My45OTQ3ODkxMjM1MzUxNiBDOTYuNzQ5MzQzODcyMDcwMzEgLTIzLjk2NDc5MzMzMzI4MDY1MywgOTYuNzQ5MzQzODcyMDcwMzEgMzYuMDY1MjAyNDU2OTczODUsIDk2Ljc0OTM0Mzg3MjA3MDMxIDgzLjk5NDc4OTEyMzUzNTE2IE05Ni43NDkzNDM4NzIwNzAzMSAtODMuOTk0Nzg5MTIzNTM1MTYgQzk2Ljc0OTM0Mzg3MjA3MDMxIC0zMi42Mzk1MTQ2OTY1NTUxOTYsIDk2Ljc0OTM0Mzg3MjA3MDMxIDE4LjcxNTc1OTczMDQyNDc2NCwgOTYuNzQ5MzQzODcyMDcwMzEgODMuOTk0Nzg5MTIzNTM1MTYgTTk2Ljc0OTM0Mzg3MjA3MDMxIDgzLjk5NDc4OTEyMzUzNTE2IEM1NC4xMDY3NDgxNjYyNTA5MyA4My45OTQ3ODkxMjM1MzUxNiwgMTEuNDY0MTUyNDYwNDMxNTUgODMuOTk0Nzg5MTIzNTM1MTYsIC05Ni43NDkzNDM4NzIwNzAzMSA4My45OTQ3ODkxMjM1MzUxNiBNOTYuNzQ5MzQzODcyMDcwMzEgODMuOTk0Nzg5MTIzNTM1MTYgQzU0Ljk1MDIxMTU0MDE3NTU0IDgzLjk5NDc4OTEyMzUzNTE2LCAxMy4xNTEwNzkyMDgyODA3NjMgODMuOTk0Nzg5MTIzNTM1MTYsIC05Ni43NDkzNDM4NzIwNzAzMSA4My45OTQ3ODkxMjM1MzUxNiBNLTk2Ljc0OTM0Mzg3MjA3MDMxIDgzLjk5NDc4OTEyMzUzNTE2IEMtOTYuNzQ5MzQzODcyMDcwMzEgNDkuMDIzOTEyNjE2MzA0MzcsIC05Ni43NDkzNDM4NzIwNzAzMSAxNC4wNTMwMzYxMDkwNzM1ODgsIC05Ni43NDkzNDM4NzIwNzAzMSAtODMuOTk0Nzg5MTIzNTM1MTYgTS05Ni43NDkzNDM4NzIwNzAzMSA4My45OTQ3ODkxMjM1MzUxNiBDLTk2Ljc0OTM0Mzg3MjA3MDMxIDE4LjExODk2MTAxNzIyMTY5MywgLTk2Ljc0OTM0Mzg3MjA3MDMxIC00Ny43NTY4NjcwODkwOTE3NywgLTk2Ljc0OTM0Mzg3MjA3MDMxIC04My45OTQ3ODkxMjM1MzUxNiI+PC9wYXRoPjwvZz48ZyB0cmFuc2Zvcm09InRyYW5zbGF0ZSgwLCAtNTkuOTk0Nzg5MTIzNTM1MTU2KSIgY2xhc3M9ImFubm90YXRpb24tZ3JvdXAgdGV4dCI+PC9nPjxnIHRyYW5zZm9ybT0idHJhbnNsYXRlKC0zNi4yMDQ0MjU4MTE3Njc1OCwgLTU5Ljk5NDc4OTEyMzUzNTE1NikiIGNsYXNzPSJsYWJlbC1ncm91cCB0ZXh0Ij48ZyB0cmFuc2Zvcm09InRyYW5zbGF0ZSgwLC0xMS45OTg2OTcyODA4ODM3ODkpIiBzdHlsZT0iZm9udC13ZWlnaHQ6IGJvbGRlciIgY2xhc3M9ImxhYmVsIj48Zm9yZWlnbk9iamVjdCBoZWlnaHQ9IjIzLjk5NzM5NDU2MTc2NzU3OCIgd2lkdGg9IjcyLjQwODg1MTYyMzUzNTE2Ij48ZGl2IHN0eWxlPSJkaXNwbGF5OiB0YWJsZS1jZWxsOyB3aGl0ZS1zcGFjZTogbm93cmFwOyBsaW5lLWhlaWdodDogMS41OyBtYXgtd2lkdGg6IDExOXB4OyB0ZXh0LWFsaWduOiBjZW50ZXI7IiB4bWxucz0iaHR0cDovL3d3dy53My5vcmcvMTk5OS94aHRtbCI+PHNwYW4gc3R5bGU9IiIgY2xhc3M9Im5vZGVMYWJlbCBtYXJrZG93bi1ub2RlLWxhYmVsIj48cD5Db2xlY2Npb248L3A+PC9zcGFuPjwvZGl2PjwvZm9yZWlnbk9iamVjdD48L2c+PC9nPjxnIHRyYW5zZm9ybT0idHJhbnNsYXRlKC04NC43NDkzNDM4NzIwNzAzMSwgLTExLjk5NzM5NDU2MTc2NzU3OCkiIGNsYXNzPSJtZW1iZXJzLWdyb3VwIHRleHQiPjxnIHRyYW5zZm9ybT0idHJhbnNsYXRlKDAsLTExLjk5ODY5NzI4MDg4Mzc4OSkiIHN0eWxlPSIiIGNsYXNzPSJsYWJlbCI+PGZvcmVpZ25PYmplY3QgaGVpZ2h0PSIyMy45OTczOTQ1NjE3Njc1NzgiIHdpZHRoPSIxMjcuNDYwOTM3NSI+PGRpdiBzdHlsZT0iZGlzcGxheTogdGFibGUtY2VsbDsgd2hpdGUtc3BhY2U6IG5vd3JhcDsgbGluZS1oZWlnaHQ6IDEuNTsgbWF4LXdpZHRoOiAxODFweDsgdGV4dC1hbGlnbjogY2VudGVyOyIgeG1sbnM9Imh0dHA6Ly93d3cudzMub3JnLzE5OTkveGh0bWwiPjxzcGFuIHN0eWxlPSIiIGNsYXNzPSJub2RlTGFiZWwgbWFya2Rvd24tbm9kZS1sYWJlbCI+PHA+K2NvbGVjY2lvbmVzOiBMaXN0PC9wPjwvc3Bhbj48L2Rpdj48L2ZvcmVpZ25PYmplY3Q+PC9nPjwvZz48ZyB0cmFuc2Zvcm09InRyYW5zbGF0ZSgtODQuNzQ5MzQzODcyMDcwMzEsIDM2KSIgY2xhc3M9Im1ldGhvZHMtZ3JvdXAgdGV4dCI+PGcgdHJhbnNmb3JtPSJ0cmFuc2xhdGUoMCwtMTEuOTk4Njk3MjgwODgzNzg5KSIgc3R5bGU9IiIgY2xhc3M9ImxhYmVsIj48Zm9yZWlnbk9iamVjdCBoZWlnaHQ9IjIzLjk5NzM5NDU2MTc2NzU3OCIgd2lkdGg9IjEyMS4wNjc3MDMyNDcwNzAzMSI+PGRpdiBzdHlsZT0iZGlzcGxheTogdGFibGUtY2VsbDsgd2hpdGUtc3BhY2U6IG5vd3JhcDsgbGluZS1oZWlnaHQ6IDEuNTsgbWF4LXdpZHRoOiAxNzJweDsgdGV4dC1hbGlnbjogY2VudGVyOyIgeG1sbnM9Imh0dHA6Ly93d3cudzMub3JnLzE5OTkveGh0bWwiPjxzcGFuIHN0eWxlPSIiIGNsYXNzPSJub2RlTGFiZWwgbWFya2Rvd24tbm9kZS1sYWJlbCI+PHA+K2dldFBlc28oKSA6IDogaW50PC9wPjwvc3Bhbj48L2Rpdj48L2ZvcmVpZ25PYmplY3Q+PC9nPjxnIHRyYW5zZm9ybT0idHJhbnNsYXRlKDAsMTEuOTk4Njk3MjgwODgzNzg5KSIgc3R5bGU9IiIgY2xhc3M9ImxhYmVsIj48Zm9yZWlnbk9iamVjdCBoZWlnaHQ9IjIzLjk5NzM5NDU2MTc2NzU3OCIgd2lkdGg9IjEzMy4yOTQyNjU3NDcwNzAzIj48ZGl2IHN0eWxlPSJkaXNwbGF5OiB0YWJsZS1jZWxsOyB3aGl0ZS1zcGFjZTogbm93cmFwOyBsaW5lLWhlaWdodDogMS41OyBtYXgtd2lkdGg6IDE4M3B4OyB0ZXh0LWFsaWduOiBjZW50ZXI7IiB4bWxucz0iaHR0cDovL3d3dy53My5vcmcvMTk5OS94aHRtbCI+PHNwYW4gc3R5bGU9IiIgY2xhc3M9Im5vZGVMYWJlbCBtYXJrZG93bi1ub2RlLWxhYmVsIj48cD4rZ2V0UHJlY2lvKCkgOiA6IGludDwvcD48L3NwYW4+PC9kaXY+PC9mb3JlaWduT2JqZWN0PjwvZz48L2c+PGcgc3R5bGU9IiIgY2xhc3M9ImRpdmlkZXIiPjxwYXRoIHN0eWxlPSIiIGZpbGw9Im5vbmUiIHN0cm9rZS13aWR0aD0iMS4zIiBzdHJva2U9IiM5OTkiIGQ9Ik0tOTYuNzQ5MzQzODcyMDcwMzEgLTM1Ljk5NzM5NDU2MTc2NzU4IEMtNTAuNzI4NzM1NzA4MzE3MjkgLTM1Ljk5NzM5NDU2MTc2NzU4LCAtNC43MDgxMjc1NDQ1NjQyNjMgLTM1Ljk5NzM5NDU2MTc2NzU4LCA5Ni43NDkzNDM4NzIwNzAzMSAtMzUuOTk3Mzk0NTYxNzY3NTggTS05Ni43NDkzNDM4NzIwNzAzMSAtMzUuOTk3Mzk0NTYxNzY3NTggQy00My42Nzg0OTcwODk5NDYyMDUgLTM1Ljk5NzM5NDU2MTc2NzU4LCA5LjM5MjM0OTY5MjE3NzkwMiAtMzUuOTk3Mzk0NTYxNzY3NTgsIDk2Ljc0OTM0Mzg3MjA3MDMxIC0zNS45OTczOTQ1NjE3Njc1OCI+PC9wYXRoPjwvZz48ZyBzdHlsZT0iIiBjbGFzcz0iZGl2aWRlciI+PHBhdGggc3R5bGU9IiIgZmlsbD0ibm9uZSIgc3Ryb2tlLXdpZHRoPSIxLjMiIHN0cm9rZT0iIzk5OSIgZD0iTS05Ni43NDkzNDM4NzIwNzAzMSAxMiBDLTIwLjkxOTIzMjI1Njg2NjY1IDEyLCA1NC45MTA4NzkzNTgzMzcwMSAxMiwgOTYuNzQ5MzQzODcyMDcwMzEgMTIgTS05Ni43NDkzNDM4NzIwNzAzMSAxMiBDLTM1LjA3MzI1NzczNTI2MzgxIDEyLCAyNi42MDI4Mjg0MDE1NDI2OTUgMTIsIDk2Ljc0OTM0Mzg3MjA3MDMxIDEyIj48L3BhdGg+PC9nPjwvZz48ZyB0cmFuc2Zvcm09InRyYW5zbGF0ZSg0MjYuNzg5NzE4NjI3OTI5NywgNjIzLjk2MzUzOTEyMzUzNTIpIiBpZD0iY2xhc3NJZC1Db2xlY2Npb25Qcml2YWRhLTUxIiBjbGFzcz0ibm9kZSBkZWZhdWx0Ij48ZyBjbGFzcz0iYmFzaWMgbGFiZWwtY29udGFpbmVyIj48cGF0aCBzdHlsZT0iIiBmaWxsPSIjZWVlIiBzdHJva2Utd2lkdGg9IjAiIHN0cm9rZT0ibm9uZSIgZD0iTS0xMTAuNjk0NjU2MzcyMDcwMzEgLTgzLjk5NDc4OTEyMzUzNTE2IEwxMTAuNjk0NjU2MzcyMDcwMzEgLTgzLjk5NDc4OTEyMzUzNTE2IEwxMTAuNjk0NjU2MzcyMDcwMzEgODMuOTk0Nzg5MTIzNTM1MTYgTC0xMTAuNjk0NjU2MzcyMDcwMzEgODMuOTk0Nzg5MTIzNTM1MTYiPjwvcGF0aD48cGF0aCBzdHlsZT0iIiBmaWxsPSJub25lIiBzdHJva2Utd2lkdGg9IjEuMyIgc3Ryb2tlPSIjOTk5IiBkPSJNLTExMC42OTQ2NTYzNzIwNzAzMSAtODMuOTk0Nzg5MTIzNTM1MTYgQy00NS40ODIzNTE3NjY2NjA0IC04My45OTQ3ODkxMjM1MzUxNiwgMTkuNzI5OTUyODM4NzQ5NTEgLTgzLjk5NDc4OTEyMzUzNTE2LCAxMTAuNjk0NjU2MzcyMDcwMzEgLTgzLjk5NDc4OTEyMzUzNTE2IE0tMTEwLjY5NDY1NjM3MjA3MDMxIC04My45OTQ3ODkxMjM1MzUxNiBDLTQzLjg5NDA5MzM0ODUxMzYxIC04My45OTQ3ODkxMjM1MzUxNiwgMjIuOTA2NDY5Njc1MDQzMSAtODMuOTk0Nzg5MTIzNTM1MTYsIDExMC42OTQ2NTYzNzIwNzAzMSAtODMuOTk0Nzg5MTIzNTM1MTYgTTExMC42OTQ2NTYzNzIwNzAzMSAtODMuOTk0Nzg5MTIzNTM1MTYgQzExMC42OTQ2NTYzNzIwNzAzMSAtMjMuNDcxNzk1NjY3MzU0ODQ3LCAxMTAuNjk0NjU2MzcyMDcwMzEgMzcuMDUxMTk3Nzg4ODI1NDYsIDExMC42OTQ2NTYzNzIwNzAzMSA4My45OTQ3ODkxMjM1MzUxNiBNMTEwLjY5NDY1NjM3MjA3MDMxIC04My45OTQ3ODkxMjM1MzUxNiBDMTEwLjY5NDY1NjM3MjA3MDMxIC0zMi41MjUzMDQ1NTA0MDkyNCwgMTEwLjY5NDY1NjM3MjA3MDMxIDE4Ljk0NDE4MDAyMjcxNjY4LCAxMTAuNjk0NjU2MzcyMDcwMzEgODMuOTk0Nzg5MTIzNTM1MTYgTTExMC42OTQ2NTYzNzIwNzAzMSA4My45OTQ3ODkxMjM1MzUxNiBDMjMuODM0NTAzMzk1ODAyNiA4My45OTQ3ODkxMjM1MzUxNiwgLTYzLjAyNTY0OTU4MDQ2NTExNCA4My45OTQ3ODkxMjM1MzUxNiwgLTExMC42OTQ2NTYzNzIwNzAzMSA4My45OTQ3ODkxMjM1MzUxNiBNMTEwLjY5NDY1NjM3MjA3MDMxIDgzLjk5NDc4OTEyMzUzNTE2IEM2NC44OTgxNzQ1NzgyMDk1NiA4My45OTQ3ODkxMjM1MzUxNiwgMTkuMTAxNjkyNzg0MzQ4ODI4IDgzLjk5NDc4OTEyMzUzNTE2LCAtMTEwLjY5NDY1NjM3MjA3MDMxIDgzLjk5NDc4OTEyMzUzNTE2IE0tMTEwLjY5NDY1NjM3MjA3MDMxIDgzLjk5NDc4OTEyMzUzNTE2IEMtMTEwLjY5NDY1NjM3MjA3MDMxIDI4LjAwMjE1MDg0MzgwODc4NSwgLTExMC42OTQ2NTYzNzIwNzAzMSAtMjcuOTkwNDg3NDM1OTE3NTg2LCAtMTEwLjY5NDY1NjM3MjA3MDMxIC04My45OTQ3ODkxMjM1MzUxNiBNLTExMC42OTQ2NTYzNzIwNzAzMSA4My45OTQ3ODkxMjM1MzUxNiBDLTExMC42OTQ2NTYzNzIwNzAzMSA0My40NTQ1ODE4NDM2NzYzNDQsIC0xMTAuNjk0NjU2MzcyMDcwMzEgMi45MTQzNzQ1NjM4MTc1MzIsIC0xMTAuNjk0NjU2MzcyMDcwMzEgLTgzLjk5NDc4OTEyMzUzNTE2Ij48L3BhdGg+PC9nPjxnIHRyYW5zZm9ybT0idHJhbnNsYXRlKDAsIC01OS45OTQ3ODkxMjM1MzUxNTYpIiBjbGFzcz0iYW5ub3RhdGlvbi1ncm91cCB0ZXh0Ij48L2c+PGcgdHJhbnNmb3JtPSJ0cmFuc2xhdGUoLTY0LjA5NTA0Njk5NzA3MDMxLCAtNTkuOTk0Nzg5MTIzNTM1MTU2KSIgY2xhc3M9ImxhYmVsLWdyb3VwIHRleHQiPjxnIHRyYW5zZm9ybT0idHJhbnNsYXRlKDAsLTExLjk5ODY5NzI4MDg4Mzc4OSkiIHN0eWxlPSJmb250LXdlaWdodDogYm9sZGVyIiBjbGFzcz0ibGFiZWwiPjxmb3JlaWduT2JqZWN0IGhlaWdodD0iMjMuOTk3Mzk0NTYxNzY3NTc4IiB3aWR0aD0iMTI4LjE5MDA5Mzk5NDE0MDYyIj48ZGl2IHN0eWxlPSJkaXNwbGF5OiB0YWJsZS1jZWxsOyB3aGl0ZS1zcGFjZTogbm93cmFwOyBsaW5lLWhlaWdodDogMS41OyBtYXgtd2lkdGg6IDE3MHB4OyB0ZXh0LWFsaWduOiBjZW50ZXI7IiB4bWxucz0iaHR0cDovL3d3dy53My5vcmcvMTk5OS94aHRtbCI+PHNwYW4gc3R5bGU9IiIgY2xhc3M9Im5vZGVMYWJlbCBtYXJrZG93bi1ub2RlLWxhYmVsIj48cD5Db2xlY2Npb25Qcml2YWRhPC9wPjwvc3Bhbj48L2Rpdj48L2ZvcmVpZ25PYmplY3Q+PC9nPjwvZz48ZyB0cmFuc2Zvcm09InRyYW5zbGF0ZSgtOTguNjk0NjU2MzcyMDcwMzEsIC0xMS45OTczOTQ1NjE3Njc1NzgpIiBjbGFzcz0ibWVtYmVycy1ncm91cCB0ZXh0Ij48ZyB0cmFuc2Zvcm09InRyYW5zbGF0ZSgwLC0xMS45OTg2OTcyODA4ODM3ODkpIiBzdHlsZT0iIiBjbGFzcz0ibGFiZWwiPjxmb3JlaWduT2JqZWN0IGhlaWdodD0iMjMuOTk3Mzk0NTYxNzY3NTc4IiB3aWR0aD0iMTI3LjQ2MDkzNzUiPjxkaXYgc3R5bGU9ImRpc3BsYXk6IHRhYmxlLWNlbGw7IHdoaXRlLXNwYWNlOiBub3dyYXA7IGxpbmUtaGVpZ2h0OiAxLjU7IG1heC13aWR0aDogMTgxcHg7IHRleHQtYWxpZ246IGNlbnRlcjsiIHhtbG5zPSJodHRwOi8vd3d3LnczLm9yZy8xOTk5L3hodG1sIj48c3BhbiBzdHlsZT0iIiBjbGFzcz0ibm9kZUxhYmVsIG1hcmtkb3duLW5vZGUtbGFiZWwiPjxwPitjb2xlY2Npb25lczogTGlzdDwvcD48L3NwYW4+PC9kaXY+PC9mb3JlaWduT2JqZWN0PjwvZz48L2c+PGcgdHJhbnNmb3JtPSJ0cmFuc2xhdGUoLTk4LjY5NDY1NjM3MjA3MDMxLCAzNikiIGNsYXNzPSJtZXRob2RzLWdyb3VwIHRleHQiPjxnIHRyYW5zZm9ybT0idHJhbnNsYXRlKDAsLTExLjk5ODY5NzI4MDg4Mzc4OSkiIHN0eWxlPSIiIGNsYXNzPSJsYWJlbCI+PGZvcmVpZ25PYmplY3QgaGVpZ2h0PSIyMy45OTczOTQ1NjE3Njc1NzgiIHdpZHRoPSIxMjEuMDY3NzAzMjQ3MDcwMzEiPjxkaXYgc3R5bGU9ImRpc3BsYXk6IHRhYmxlLWNlbGw7IHdoaXRlLXNwYWNlOiBub3dyYXA7IGxpbmUtaGVpZ2h0OiAxLjU7IG1heC13aWR0aDogMTcycHg7IHRleHQtYWxpZ246IGNlbnRlcjsiIHhtbG5zPSJodHRwOi8vd3d3LnczLm9yZy8xOTk5L3hodG1sIj48c3BhbiBzdHlsZT0iIiBjbGFzcz0ibm9kZUxhYmVsIG1hcmtkb3duLW5vZGUtbGFiZWwiPjxwPitnZXRQZXNvKCkgOiA6IGludDwvcD48L3NwYW4+PC9kaXY+PC9mb3JlaWduT2JqZWN0PjwvZz48ZyB0cmFuc2Zvcm09InRyYW5zbGF0ZSgwLDExLjk5ODY5NzI4MDg4Mzc4OSkiIHN0eWxlPSIiIGNsYXNzPSJsYWJlbCI+PGZvcmVpZ25PYmplY3QgaGVpZ2h0PSIyMy45OTczOTQ1NjE3Njc1NzgiIHdpZHRoPSIxMzMuMjk0MjY1NzQ3MDcwMyI+PGRpdiBzdHlsZT0iZGlzcGxheTogdGFibGUtY2VsbDsgd2hpdGUtc3BhY2U6IG5vd3JhcDsgbGluZS1oZWlnaHQ6IDEuNTsgbWF4LXdpZHRoOiAxODNweDsgdGV4dC1hbGlnbjogY2VudGVyOyIgeG1sbnM9Imh0dHA6Ly93d3cudzMub3JnLzE5OTkveGh0bWwiPjxzcGFuIHN0eWxlPSIiIGNsYXNzPSJub2RlTGFiZWwgbWFya2Rvd24tbm9kZS1sYWJlbCI+PHA+K2dldFByZWNpbygpIDogOiBpbnQ8L3A+PC9zcGFuPjwvZGl2PjwvZm9yZWlnbk9iamVjdD48L2c+PC9nPjxnIHN0eWxlPSIiIGNsYXNzPSJkaXZpZGVyIj48cGF0aCBzdHlsZT0iIiBmaWxsPSJub25lIiBzdHJva2Utd2lkdGg9IjEuMyIgc3Ryb2tlPSIjOTk5IiBkPSJNLTExMC42OTQ2NTYzNzIwNzAzMSAtMzUuOTk3Mzk0NTYxNzY3NTggQy01NS45Nzc1MTA0NDQzODg1NjQgLTM1Ljk5NzM5NDU2MTc2NzU4LCAtMS4yNjAzNjQ1MTY3MDY4MTUyIC0zNS45OTczOTQ1NjE3Njc1OCwgMTEwLjY5NDY1NjM3MjA3MDMxIC0zNS45OTczOTQ1NjE3Njc1OCBNLTExMC42OTQ2NTYzNzIwNzAzMSAtMzUuOTk3Mzk0NTYxNzY3NTggQy0zNy4xMTg1MjQ5NzM2NDQ4NCAtMzUuOTk3Mzk0NTYxNzY3NTgsIDM2LjQ1NzYwNjQyNDc4MDYzNiAtMzUuOTk3Mzk0NTYxNzY3NTgsIDExMC42OTQ2NTYzNzIwNzAzMSAtMzUuOTk3Mzk0NTYxNzY3NTgiPjwvcGF0aD48L2c+PGcgc3R5bGU9IiIgY2xhc3M9ImRpdmlkZXIiPjxwYXRoIHN0eWxlPSIiIGZpbGw9Im5vbmUiIHN0cm9rZS13aWR0aD0iMS4zIiBzdHJva2U9IiM5OTkiIGQ9Ik0tMTEwLjY5NDY1NjM3MjA3MDMxIDEyIEMtNTUuODYwOTk4NjgzMDgzMjQgMTIsIC0xLjAyNzM0MDk5NDA5NjE2NDIgMTIsIDExMC42OTQ2NTYzNzIwNzAzMSAxMiBNLTExMC42OTQ2NTYzNzIwNzAzMSAxMiBDLTYwLjEyMTgzMzgyNDE1OTk1IDEyLCAtOS41NDkwMTEyNzYyNDk1ODcgMTIsIDExMC42OTQ2NTYzNzIwNzAzMSAxMiI+PC9wYXRoPjwvZz48L2c+PGcgdHJhbnNmb3JtPSJ0cmFuc2xhdGUoMTU0OS40NzY1MzE5ODI0MjE5LCAxMjcuOTkwODgyODczNTM1MTYpIiBpZD0iY2xhc3NJZC1Db25kaWNpb24tNTIiIGNsYXNzPSJub2RlIGRlZmF1bHQiPjxnIGNsYXNzPSJiYXNpYyBsYWJlbC1jb250YWluZXIiPjxwYXRoIHN0eWxlPSIiIGZpbGw9IiNlZWUiIHN0cm9rZS13aWR0aD0iMCIgc3Ryb2tlPSJub25lIiBkPSJNLTE1MS45NzM5NTMyNDcwNzAzIC03NC45OTYwODk5MzUzMDI3MyBMMTUxLjk3Mzk1MzI0NzA3MDMgLTc0Ljk5NjA4OTkzNTMwMjczIEwxNTEuOTczOTUzMjQ3MDcwMyA3NC45OTYwODk5MzUzMDI3MyBMLTE1MS45NzM5NTMyNDcwNzAzIDc0Ljk5NjA4OTkzNTMwMjczIj48L3BhdGg+PHBhdGggc3R5bGU9IiIgZmlsbD0ibm9uZSIgc3Ryb2tlLXdpZHRoPSIxLjMiIHN0cm9rZT0iIzk5OSIgZD0iTS0xNTEuOTczOTUzMjQ3MDcwMyAtNzQuOTk2MDg5OTM1MzAyNzMgQy03MS4wMDMwMDUwNDc3Mjc4NSAtNzQuOTk2MDg5OTM1MzAyNzMsIDkuOTY3OTQzMTUxNjE0NjA1IC03NC45OTYwODk5MzUzMDI3MywgMTUxLjk3Mzk1MzI0NzA3MDMgLTc0Ljk5NjA4OTkzNTMwMjczIE0tMTUxLjk3Mzk1MzI0NzA3MDMgLTc0Ljk5NjA4OTkzNTMwMjczIEMtNjkuMjM2NjA5OTgxNzQzMzcgLTc0Ljk5NjA4OTkzNTMwMjczLCAxMy41MDA3MzMyODM1ODM1NzEgLTc0Ljk5NjA4OTkzNTMwMjczLCAxNTEuOTczOTUzMjQ3MDcwMyAtNzQuOTk2MDg5OTM1MzAyNzMgTTE1MS45NzM5NTMyNDcwNzAzIC03NC45OTYwODk5MzUzMDI3MyBDMTUxLjk3Mzk1MzI0NzA3MDMgLTQyLjk0MjcxMzY5MjQ4NDA5LCAxNTEuOTczOTUzMjQ3MDcwMyAtMTAuODg5MzM3NDQ5NjY1NDQ3LCAxNTEuOTczOTUzMjQ3MDcwMyA3NC45OTYwODk5MzUzMDI3MyBNMTUxLjk3Mzk1MzI0NzA3MDMgLTc0Ljk5NjA4OTkzNTMwMjczIEMxNTEuOTczOTUzMjQ3MDcwMyAtMjkuMzk4MjQwNTE4NzM2MzM3LCAxNTEuOTczOTUzMjQ3MDcwMyAxNi4xOTk2MDg4OTc4MzAwNiwgMTUxLjk3Mzk1MzI0NzA3MDMgNzQuOTk2MDg5OTM1MzAyNzMgTTE1MS45NzM5NTMyNDcwNzAzIDc0Ljk5NjA4OTkzNTMwMjczIEM1NS42MTIzNzE0MTc5NjMxNDYgNzQuOTk2MDg5OTM1MzAyNzMsIC00MC43NDkyMTA0MTExNDQwMiA3NC45OTYwODk5MzUzMDI3MywgLTE1MS45NzM5NTMyNDcwNzAzIDc0Ljk5NjA4OTkzNTMwMjczIE0xNTEuOTczOTUzMjQ3MDcwMyA3NC45OTYwODk5MzUzMDI3MyBDMzIuNDYwNDI1NDU1MzYwOTA1IDc0Ljk5NjA4OTkzNTMwMjczLCAtODcuMDUzMTAyMzM2MzQ4NSA3NC45OTYwODk5MzUzMDI3MywgLTE1MS45NzM5NTMyNDcwNzAzIDc0Ljk5NjA4OTkzNTMwMjczIE0tMTUxLjk3Mzk1MzI0NzA3MDMgNzQuOTk2MDg5OTM1MzAyNzMgQy0xNTEuOTczOTUzMjQ3MDcwMyAxNi45ODAwNTM5MDc1MDc3NiwgLTE1MS45NzM5NTMyNDcwNzAzIC00MS4wMzU5ODIxMjAyODcyMTUsIC0xNTEuOTczOTUzMjQ3MDcwMyAtNzQuOTk2MDg5OTM1MzAyNzMgTS0xNTEuOTczOTUzMjQ3MDcwMyA3NC45OTYwODk5MzUzMDI3MyBDLTE1MS45NzM5NTMyNDcwNzAzIDM2LjM5ODMxMDkzMjQwMzYsIC0xNTEuOTczOTUzMjQ3MDcwMyAtMi4xOTk0NjgwNzA0OTU1NDE0LCAtMTUxLjk3Mzk1MzI0NzA3MDMgLTc0Ljk5NjA4OTkzNTMwMjczIj48L3BhdGg+PC9nPjxnIHRyYW5zZm9ybT0idHJhbnNsYXRlKC00MS4xNzE4Nzg4MTQ2OTcyNjYsIC01MC45OTYwODk5MzUzMDI3MzQpIiBjbGFzcz0iYW5ub3RhdGlvbi1ncm91cCB0ZXh0Ij48ZyB0cmFuc2Zvcm09InRyYW5zbGF0ZSgwLC0xMS45OTg2OTcyODA4ODM3ODkpIiBzdHlsZT0iIiBjbGFzcz0ibGFiZWwiPjxmb3JlaWduT2JqZWN0IGhlaWdodD0iMjMuOTk3Mzk0NTYxNzY3NTc4IiB3aWR0aD0iODIuMzQzNzU3NjI5Mzk0NTMiPjxkaXYgc3R5bGU9ImRpc3BsYXk6IHRhYmxlLWNlbGw7IHdoaXRlLXNwYWNlOiBub3dyYXA7IGxpbmUtaGVpZ2h0OiAxLjU7IG1heC13aWR0aDogMTI4cHg7IHRleHQtYWxpZ246IGNlbnRlcjsiIHhtbG5zPSJodHRwOi8vd3d3LnczLm9yZy8xOTk5L3hodG1sIj48c3BhbiBzdHlsZT0iIiBjbGFzcz0ibm9kZUxhYmVsIG1hcmtkb3duLW5vZGUtbGFiZWwiPjxwPsKraW50ZXJmYWNlwrs8L3A+PC9zcGFuPjwvZGl2PjwvZm9yZWlnbk9iamVjdD48L2c+PC9nPjxnIHRyYW5zZm9ybT0idHJhbnNsYXRlKC0zNi45MDc1NTA4MTE3Njc1OCwgLTI2Ljk5ODY5NTM3MzUzNTE1NikiIGNsYXNzPSJsYWJlbC1ncm91cCB0ZXh0Ij48ZyB0cmFuc2Zvcm09InRyYW5zbGF0ZSgwLC0xMS45OTg2OTcyODA4ODM3ODkpIiBzdHlsZT0iZm9udC13ZWlnaHQ6IGJvbGRlciIgY2xhc3M9ImxhYmVsIj48Zm9yZWlnbk9iamVjdCBoZWlnaHQ9IjIzLjk5NzM5NDU2MTc2NzU3OCIgd2lkdGg9IjczLjgxNTEwMTYyMzUzNTE2Ij48ZGl2IHN0eWxlPSJkaXNwbGF5OiB0YWJsZS1jZWxsOyB3aGl0ZS1zcGFjZTogbm93cmFwOyBsaW5lLWhlaWdodDogMS41OyBtYXgtd2lkdGg6IDEyMXB4OyB0ZXh0LWFsaWduOiBjZW50ZXI7IiB4bWxucz0iaHR0cDovL3d3dy53My5vcmcvMTk5OS94aHRtbCI+PHNwYW4gc3R5bGU9IiIgY2xhc3M9Im5vZGVMYWJlbCBtYXJrZG93bi1ub2RlLWxhYmVsIj48cD5Db25kaWNpb248L3A+PC9zcGFuPjwvZGl2PjwvZm9yZWlnbk9iamVjdD48L2c+PC9nPjxnIHRyYW5zZm9ybT0idHJhbnNsYXRlKC0xMzkuOTczOTUzMjQ3MDcwMywgMjAuOTk4Njk5MTg4MjMyNDIyKSIgY2xhc3M9Im1lbWJlcnMtZ3JvdXAgdGV4dCI+PC9nPjxnIHRyYW5zZm9ybT0idHJhbnNsYXRlKC0xMzkuOTczOTUzMjQ3MDcwMywgNTAuOTk4Njk5MTg4MjMyNDIpIiBjbGFzcz0ibWV0aG9kcy1ncm91cCB0ZXh0Ij48ZyB0cmFuc2Zvcm09InRyYW5zbGF0ZSgwLC0xMS45OTg2OTcyODA4ODM3ODkpIiBzdHlsZT0iIiBjbGFzcz0ibGFiZWwiPjxmb3JlaWduT2JqZWN0IGhlaWdodD0iMjMuOTk3Mzk0NTYxNzY3NTc4IiB3aWR0aD0iMjM4Ljc3NjAzMTQ5NDE0MDYyIj48ZGl2IHN0eWxlPSJkaXNwbGF5OiB0YWJsZS1jZWxsOyB3aGl0ZS1zcGFjZTogbm93cmFwOyBsaW5lLWhlaWdodDogMS41OyBtYXgtd2lkdGg6IDI5MHB4OyB0ZXh0LWFsaWduOiBjZW50ZXI7IiB4bWxucz0iaHR0cDovL3d3dy53My5vcmcvMTk5OS94aHRtbCI+PHNwYW4gc3R5bGU9IiIgY2xhc3M9Im5vZGVMYWJlbCBtYXJrZG93bi1ub2RlLWxhYmVsIj48cD4rY3VtcGxlQ29uKEFydGljdWxvKSA6IDogYm9vbGVhbjwvcD48L3NwYW4+PC9kaXY+PC9mb3JlaWduT2JqZWN0PjwvZz48L2c+PGcgc3R5bGU9IiIgY2xhc3M9ImRpdmlkZXIiPjxwYXRoIHN0eWxlPSIiIGZpbGw9Im5vbmUiIHN0cm9rZS13aWR0aD0iMS4zIiBzdHJva2U9IiM5OTkiIGQ9Ik0tMTUxLjk3Mzk1MzI0NzA3MDMgLTMuMDAxMzAwODExNzY3NTc4IEMtMzEuODg1NDY0OTkwMDQwMDUgLTMuMDAxMzAwODExNzY3NTc4LCA4OC4yMDMwMjMyNjY5OTAyMSAtMy4wMDEzMDA4MTE3Njc1NzgsIDE1MS45NzM5NTMyNDcwNzAzIC0zLjAwMTMwMDgxMTc2NzU3OCBNLTE1MS45NzM5NTMyNDcwNzAzIC0zLjAwMTMwMDgxMTc2NzU3OCBDLTQ1LjkyNzczNTc5MTY4NTgyIC0zLjAwMTMwMDgxMTc2NzU3OCwgNjAuMTE4NDgxNjYzNjk4Njc0IC0zLjAwMTMwMDgxMTc2NzU3OCwgMTUxLjk3Mzk1MzI0NzA3MDMgLTMuMDAxMzAwODExNzY3NTc4Ij48L3BhdGg+PC9nPjxnIHN0eWxlPSIiIGNsYXNzPSJkaXZpZGVyIj48cGF0aCBzdHlsZT0iIiBmaWxsPSJub25lIiBzdHJva2Utd2lkdGg9IjEuMyIgc3Ryb2tlPSIjOTk5IiBkPSJNLTE1MS45NzM5NTMyNDcwNzAzIDIwLjk5ODY5OTE4ODIzMjQyMiBDLTc4LjEwODUyNjk1NzUwMjAyIDIwLjk5ODY5OTE4ODIzMjQyMiwgLTQuMjQzMTAwNjY3OTMzNzMxNSAyMC45OTg2OTkxODgyMzI0MjIsIDE1MS45NzM5NTMyNDcwNzAzIDIwLjk5ODY5OTE4ODIzMjQyMiBNLTE1MS45NzM5NTMyNDcwNzAzIDIwLjk5ODY5OTE4ODIzMjQyMiBDLTQ1Ljk0OTMzMTU3ODcwOTA1IDIwLjk5ODY5OTE4ODIzMjQyMiwgNjAuMDc1MjkwMDg5NjUyMjEgMjAuOTk4Njk5MTg4MjMyNDIyLCAxNTEuOTczOTUzMjQ3MDcwMyAyMC45OTg2OTkxODgyMzI0MjIiPjwvcGF0aD48L2c+PC9nPjxnIHRyYW5zZm9ybT0idHJhbnNsYXRlKDc1My44MzMzMjgyNDcwNzAzLCAzOTMuOTc1MjU3ODczNTM1MTYpIiBpZD0iY2xhc3NJZC1Db25kaWNpb25Db250aWVuZVBhbGFicmEtNTMiIGNsYXNzPSJub2RlIGRlZmF1bHQiPjxnIGNsYXNzPSJiYXNpYyBsYWJlbC1jb250YWluZXIiPjxwYXRoIHN0eWxlPSIiIGZpbGw9IiNlZWUiIHN0cm9rZS13aWR0aD0iMCIgc3Ryb2tlPSJub25lIiBkPSJNLTE4MC4yOTQyNjU3NDcwNzAzIC03MS45OTYwODk5MzUzMDI3MyBMMTgwLjI5NDI2NTc0NzA3MDMgLTcxLjk5NjA4OTkzNTMwMjczIEwxODAuMjk0MjY1NzQ3MDcwMyA3MS45OTYwODk5MzUzMDI3MyBMLTE4MC4yOTQyNjU3NDcwNzAzIDcxLjk5NjA4OTkzNTMwMjczIj48L3BhdGg+PHBhdGggc3R5bGU9IiIgZmlsbD0ibm9uZSIgc3Ryb2tlLXdpZHRoPSIxLjMiIHN0cm9rZT0iIzk5OSIgZD0iTS0xODAuMjk0MjY1NzQ3MDcwMyAtNzEuOTk2MDg5OTM1MzAyNzMgQy05OC41MDQ5NDIwNzkwOTcwNSAtNzEuOTk2MDg5OTM1MzAyNzMsIC0xNi43MTU2MTg0MTExMjM3ODUgLTcxLjk5NjA4OTkzNTMwMjczLCAxODAuMjk0MjY1NzQ3MDcwMyAtNzEuOTk2MDg5OTM1MzAyNzMgTS0xODAuMjk0MjY1NzQ3MDcwMyAtNzEuOTk2MDg5OTM1MzAyNzMgQy05MS4yNDAwNjYxMjAxMTE2MyAtNzEuOTk2MDg5OTM1MzAyNzMsIC0yLjE4NTg2NjQ5MzE1Mjk1NzQgLTcxLjk5NjA4OTkzNTMwMjczLCAxODAuMjk0MjY1NzQ3MDcwMyAtNzEuOTk2MDg5OTM1MzAyNzMgTTE4MC4yOTQyNjU3NDcwNzAzIC03MS45OTYwODk5MzUzMDI3MyBDMTgwLjI5NDI2NTc0NzA3MDMgLTIwLjYwMTI0MjAzMTc3NzgsIDE4MC4yOTQyNjU3NDcwNzAzIDMwLjc5MzYwNTg3MTc0NzEzMywgMTgwLjI5NDI2NTc0NzA3MDMgNzEuOTk2MDg5OTM1MzAyNzMgTTE4MC4yOTQyNjU3NDcwNzAzIC03MS45OTYwODk5MzUzMDI3MyBDMTgwLjI5NDI2NTc0NzA3MDMgLTIzLjkwNDQ0ODg5MTIzODA3LCAxODAuMjk0MjY1NzQ3MDcwMyAyNC4xODcxOTIxNTI4MjY1OTcsIDE4MC4yOTQyNjU3NDcwNzAzIDcxLjk5NjA4OTkzNTMwMjczIE0xODAuMjk0MjY1NzQ3MDcwMyA3MS45OTYwODk5MzUzMDI3MyBDNjYuNTAyMjExMTE3NDkyNzMgNzEuOTk2MDg5OTM1MzAyNzMsIC00Ny4yODk4NDM1MTIwODQ4NCA3MS45OTYwODk5MzUzMDI3MywgLTE4MC4yOTQyNjU3NDcwNzAzIDcxLjk5NjA4OTkzNTMwMjczIE0xODAuMjk0MjY1NzQ3MDcwMyA3MS45OTYwODk5MzUzMDI3MyBDNjAuNTQ2ODgxMjc5NTA2NTM2IDcxLjk5NjA4OTkzNTMwMjczLCAtNTkuMjAwNTAzMTg4MDU3MjQgNzEuOTk2MDg5OTM1MzAyNzMsIC0xODAuMjk0MjY1NzQ3MDcwMyA3MS45OTYwODk5MzUzMDI3MyBNLTE4MC4yOTQyNjU3NDcwNzAzIDcxLjk5NjA4OTkzNTMwMjczIEMtMTgwLjI5NDI2NTc0NzA3MDMgMzMuNDE3NjczMDUzNDY4ODEsIC0xODAuMjk0MjY1NzQ3MDcwMyAtNS4xNjA3NDM4MjgzNjUxMTM1LCAtMTgwLjI5NDI2NTc0NzA3MDMgLTcxLjk5NjA4OTkzNTMwMjczIE0tMTgwLjI5NDI2NTc0NzA3MDMgNzEuOTk2MDg5OTM1MzAyNzMgQy0xODAuMjk0MjY1NzQ3MDcwMyA0Mi41NzI0ODg1Mzk4MDcyMjUsIC0xODAuMjk0MjY1NzQ3MDcwMyAxMy4xNDg4ODcxNDQzMTE3MDgsIC0xODAuMjk0MjY1NzQ3MDcwMyAtNzEuOTk2MDg5OTM1MzAyNzMiPjwvcGF0aD48L2c+PGcgdHJhbnNmb3JtPSJ0cmFuc2xhdGUoMCwgLTQ3Ljk5NjA4OTkzNTMwMjczNCkiIGNsYXNzPSJhbm5vdGF0aW9uLWdyb3VwIHRleHQiPjwvZz48ZyB0cmFuc2Zvcm09InRyYW5zbGF0ZSgtOTcuODEyNTA3NjI5Mzk0NTMsIC00Ny45OTYwODk5MzUzMDI3MzQpIiBjbGFzcz0ibGFiZWwtZ3JvdXAgdGV4dCI+PGcgdHJhbnNmb3JtPSJ0cmFuc2xhdGUoMCwtMTEuOTk4Njk3MjgwODgzNzg5KSIgc3R5bGU9ImZvbnQtd2VpZ2h0OiBib2xkZXIiIGNsYXNzPSJsYWJlbCI+PGZvcmVpZ25PYmplY3QgaGVpZ2h0PSIyMy45OTczOTQ1NjE3Njc1NzgiIHdpZHRoPSIxOTUuNjI1MDE1MjU4Nzg5MDYiPjxkaXYgc3R5bGU9ImRpc3BsYXk6IHRhYmxlLWNlbGw7IHdoaXRlLXNwYWNlOiBub3dyYXA7IGxpbmUtaGVpZ2h0OiAxLjU7IG1heC13aWR0aDogMjM2cHg7IHRleHQtYWxpZ246IGNlbnRlcjsiIHhtbG5zPSJodHRwOi8vd3d3LnczLm9yZy8xOTk5L3hodG1sIj48c3BhbiBzdHlsZT0iIiBjbGFzcz0ibm9kZUxhYmVsIG1hcmtkb3duLW5vZGUtbGFiZWwiPjxwPkNvbmRpY2lvbkNvbnRpZW5lUGFsYWJyYTwvcD48L3NwYW4+PC9kaXY+PC9mb3JlaWduT2JqZWN0PjwvZz48L2c+PGcgdHJhbnNmb3JtPSJ0cmFuc2xhdGUoLTE2OC4yOTQyNjU3NDcwNzAzLCAwLjAwMTMwNDYyNjQ2NDg0Mzc1KSIgY2xhc3M9Im1lbWJlcnMtZ3JvdXAgdGV4dCI+PGcgdHJhbnNmb3JtPSJ0cmFuc2xhdGUoMCwtMTEuOTk4Njk3MjgwODgzNzg5KSIgc3R5bGU9IiIgY2xhc3M9ImxhYmVsIj48Zm9yZWlnbk9iamVjdCBoZWlnaHQ9IjIzLjk5NzM5NDU2MTc2NzU3OCIgd2lkdGg9IjExMi4xNDg0Mzc1Ij48ZGl2IHN0eWxlPSJkaXNwbGF5OiB0YWJsZS1jZWxsOyB3aGl0ZS1zcGFjZTogbm93cmFwOyBsaW5lLWhlaWdodDogMS41OyBtYXgtd2lkdGg6IDE2NXB4OyB0ZXh0LWFsaWduOiBjZW50ZXI7IiB4bWxucz0iaHR0cDovL3d3dy53My5vcmcvMTk5OS94aHRtbCI+PHNwYW4gc3R5bGU9IiIgY2xhc3M9Im5vZGVMYWJlbCBtYXJrZG93bi1ub2RlLWxhYmVsIj48cD4tcGFsYWJyYTogU3RyaW5nPC9wPjwvc3Bhbj48L2Rpdj48L2ZvcmVpZ25PYmplY3Q+PC9nPjwvZz48ZyB0cmFuc2Zvcm09InRyYW5zbGF0ZSgtMTY4LjI5NDI2NTc0NzA3MDMsIDQ3Ljk5ODY5OTE4ODIzMjQyKSIgY2xhc3M9Im1ldGhvZHMtZ3JvdXAgdGV4dCI+PGcgdHJhbnNmb3JtPSJ0cmFuc2xhdGUoMCwtMTEuOTk4Njk3MjgwODgzNzg5KSIgc3R5bGU9IiIgY2xhc3M9ImxhYmVsIj48Zm9yZWlnbk9iamVjdCBoZWlnaHQ9IjIzLjk5NzM5NDU2MTc2NzU3OCIgd2lkdGg9IjIzOC43NzYwMzE0OTQxNDA2MiI+PGRpdiBzdHlsZT0iZGlzcGxheTogdGFibGUtY2VsbDsgd2hpdGUtc3BhY2U6IG5vd3JhcDsgbGluZS1oZWlnaHQ6IDEuNTsgbWF4LXdpZHRoOiAyOTBweDsgdGV4dC1hbGlnbjogY2VudGVyOyIgeG1sbnM9Imh0dHA6Ly93d3cudzMub3JnLzE5OTkveGh0bWwiPjxzcGFuIHN0eWxlPSIiIGNsYXNzPSJub2RlTGFiZWwgbWFya2Rvd24tbm9kZS1sYWJlbCI+PHA+K2N1bXBsZUNvbihBcnRpY3VsbykgOiA6IGJvb2xlYW48L3A+PC9zcGFuPjwvZGl2PjwvZm9yZWlnbk9iamVjdD48L2c+PC9nPjxnIHN0eWxlPSIiIGNsYXNzPSJkaXZpZGVyIj48cGF0aCBzdHlsZT0iIiBmaWxsPSJub25lIiBzdHJva2Utd2lkdGg9IjEuMyIgc3Ryb2tlPSIjOTk5IiBkPSJNLTE4MC4yOTQyNjU3NDcwNzAzIC0yMy45OTg2OTUzNzM1MzUxNTYgQy01OC4yODAzNTI2MjY5MDUzNyAtMjMuOTk4Njk1MzczNTM1MTU2LCA2My43MzM1NjA0OTMyNTk1NzQgLTIzLjk5ODY5NTM3MzUzNTE1NiwgMTgwLjI5NDI2NTc0NzA3MDMgLTIzLjk5ODY5NTM3MzUzNTE1NiBNLTE4MC4yOTQyNjU3NDcwNzAzIC0yMy45OTg2OTUzNzM1MzUxNTYgQy05MC41NTY3MzM3NjI1ODIwMyAtMjMuOTk4Njk1MzczNTM1MTU2LCAtMC44MTkyMDE3NzgwOTM3NDIgLTIzLjk5ODY5NTM3MzUzNTE1NiwgMTgwLjI5NDI2NTc0NzA3MDMgLTIzLjk5ODY5NTM3MzUzNTE1NiI+PC9wYXRoPjwvZz48ZyBzdHlsZT0iIiBjbGFzcz0iZGl2aWRlciI+PHBhdGggc3R5bGU9IiIgZmlsbD0ibm9uZSIgc3Ryb2tlLXdpZHRoPSIxLjMiIHN0cm9rZT0iIzk5OSIgZD0iTS0xODAuMjk0MjY1NzQ3MDcwMyAyMy45OTg2OTkxODgyMzI0MjIgQy01OS40MTU4MDYzNDcxNTA0NSAyMy45OTg2OTkxODgyMzI0MjIsIDYxLjQ2MjY1MzA1Mjc2OTQxIDIzLjk5ODY5OTE4ODIzMjQyMiwgMTgwLjI5NDI2NTc0NzA3MDMgMjMuOTk4Njk5MTg4MjMyNDIyIE0tMTgwLjI5NDI2NTc0NzA3MDMgMjMuOTk4Njk5MTg4MjMyNDIyIEMtODkuMDkwMzk3OTY5NDg1MTIgMjMuOTk4Njk5MTg4MjMyNDIyLCAyLjExMzQ2OTgwODEwMDA2MzYgMjMuOTk4Njk5MTg4MjMyNDIyLCAxODAuMjk0MjY1NzQ3MDcwMyAyMy45OTg2OTkxODgyMzI0MjIiPjwvcGF0aD48L2c+PC9nPjxnIHRyYW5zZm9ybT0idHJhbnNsYXRlKDExNTcuMDQ4ODEyODY2MjExLCAzOTMuOTc1MjU3ODczNTM1MTYpIiBpZD0iY2xhc3NJZC1Db25kaWNpb25QcmVjaW9NYXlvci01NCIgY2xhc3M9Im5vZGUgZGVmYXVsdCI+PGcgY2xhc3M9ImJhc2ljIGxhYmVsLWNvbnRhaW5lciI+PHBhdGggc3R5bGU9IiIgZmlsbD0iI2VlZSIgc3Ryb2tlLXdpZHRoPSIwIiBzdHJva2U9Im5vbmUiIGQ9Ik0tMTcyLjkyMTIxODg3MjA3MDMgLTcxLjk5NjA4OTkzNTMwMjczIEwxNzIuOTIxMjE4ODcyMDcwMyAtNzEuOTk2MDg5OTM1MzAyNzMgTDE3Mi45MjEyMTg4NzIwNzAzIDcxLjk5NjA4OTkzNTMwMjczIEwtMTcyLjkyMTIxODg3MjA3MDMgNzEuOTk2MDg5OTM1MzAyNzMiPjwvcGF0aD48cGF0aCBzdHlsZT0iIiBmaWxsPSJub25lIiBzdHJva2Utd2lkdGg9IjEuMyIgc3Ryb2tlPSIjOTk5IiBkPSJNLTE3Mi45MjEyMTg4NzIwNzAzIC03MS45OTYwODk5MzUzMDI3MyBDLTUyLjAzNDM2Mjg3NDE2ODgxIC03MS45OTYwODk5MzUzMDI3MywgNjguODUyNDkzMTIzNzMyNyAtNzEuOTk2MDg5OTM1MzAyNzMsIDE3Mi45MjEyMTg4NzIwNzAzIC03MS45OTYwODk5MzUzMDI3MyBNLTE3Mi45MjEyMTg4NzIwNzAzIC03MS45OTYwODk5MzUzMDI3MyBDLTY2LjIzNjQ0Mjg2NDgzNDIzIC03MS45OTYwODk5MzUzMDI3MywgNDAuNDQ4MzMzMTQyNDAxODUgLTcxLjk5NjA4OTkzNTMwMjczLCAxNzIuOTIxMjE4ODcyMDcwMyAtNzEuOTk2MDg5OTM1MzAyNzMgTTE3Mi45MjEyMTg4NzIwNzAzIC03MS45OTYwODk5MzUzMDI3MyBDMTcyLjkyMTIxODg3MjA3MDMgLTM5LjAyMDM5MjYzNjk0MzU1LCAxNzIuOTIxMjE4ODcyMDcwMyAtNi4wNDQ2OTUzMzg1ODQzNjEsIDE3Mi45MjEyMTg4NzIwNzAzIDcxLjk5NjA4OTkzNTMwMjczIE0xNzIuOTIxMjE4ODcyMDcwMyAtNzEuOTk2MDg5OTM1MzAyNzMgQzE3Mi45MjEyMTg4NzIwNzAzIC0zMi40NjU0MjE2OTMzNjQ1NTQsIDE3Mi45MjEyMTg4NzIwNzAzIDcuMDY1MjQ2NTQ4NTczNjI2LCAxNzIuOTIxMjE4ODcyMDcwMyA3MS45OTYwODk5MzUzMDI3MyBNMTcyLjkyMTIxODg3MjA3MDMgNzEuOTk2MDg5OTM1MzAyNzMgQzc3LjIzOTE5MTA5NzU0MTUyIDcxLjk5NjA4OTkzNTMwMjczLCAtMTguNDQyODM2Njc2OTg3MjcgNzEuOTk2MDg5OTM1MzAyNzMsIC0xNzIuOTIxMjE4ODcyMDcwMyA3MS45OTYwODk5MzUzMDI3MyBNMTcyLjkyMTIxODg3MjA3MDMgNzEuOTk2MDg5OTM1MzAyNzMgQzk3LjQxMTYzMzIwNDUxNjQ2IDcxLjk5NjA4OTkzNTMwMjczLCAyMS45MDIwNDc1MzY5NjI2MTMgNzEuOTk2MDg5OTM1MzAyNzMsIC0xNzIuOTIxMjE4ODcyMDcwMyA3MS45OTYwODk5MzUzMDI3MyBNLTE3Mi45MjEyMTg4NzIwNzAzIDcxLjk5NjA4OTkzNTMwMjczIEMtMTcyLjkyMTIxODg3MjA3MDMgMTYuMDQ1MDE3MjE4MjMyNzY1LCAtMTcyLjkyMTIxODg3MjA3MDMgLTM5LjkwNjA1NTQ5ODgzNzIwNSwgLTE3Mi45MjEyMTg4NzIwNzAzIC03MS45OTYwODk5MzUzMDI3MyBNLTE3Mi45MjEyMTg4NzIwNzAzIDcxLjk5NjA4OTkzNTMwMjczIEMtMTcyLjkyMTIxODg3MjA3MDMgMjIuNTEwOTA1MTg0OTk2MjgyLCAtMTcyLjkyMTIxODg3MjA3MDMgLTI2Ljk3NDI3OTU2NTMxMDE3LCAtMTcyLjkyMTIxODg3MjA3MDMgLTcxLjk5NjA4OTkzNTMwMjczIj48L3BhdGg+PC9nPjxnIHRyYW5zZm9ybT0idHJhbnNsYXRlKDAsIC00Ny45OTYwODk5MzUzMDI3MzQpIiBjbGFzcz0iYW5ub3RhdGlvbi1ncm91cCB0ZXh0Ij48L2c+PGcgdHJhbnNmb3JtPSJ0cmFuc2xhdGUoLTgzLjA2NjQxMzg3OTM5NDUzLCAtNDcuOTk2MDg5OTM1MzAyNzM0KSIgY2xhc3M9ImxhYmVsLWdyb3VwIHRleHQiPjxnIHRyYW5zZm9ybT0idHJhbnNsYXRlKDAsLTExLjk5ODY5NzI4MDg4Mzc4OSkiIHN0eWxlPSJmb250LXdlaWdodDogYm9sZGVyIiBjbGFzcz0ibGFiZWwiPjxmb3JlaWduT2JqZWN0IGhlaWdodD0iMjMuOTk3Mzk0NTYxNzY3NTc4IiB3aWR0aD0iMTY2LjEzMjgyNzc1ODc4OTA2Ij48ZGl2IHN0eWxlPSJkaXNwbGF5OiB0YWJsZS1jZWxsOyB3aGl0ZS1zcGFjZTogbm93cmFwOyBsaW5lLWhlaWdodDogMS41OyBtYXgtd2lkdGg6IDIxMHB4OyB0ZXh0LWFsaWduOiBjZW50ZXI7IiB4bWxucz0iaHR0cDovL3d3dy53My5vcmcvMTk5OS94aHRtbCI+PHNwYW4gc3R5bGU9IiIgY2xhc3M9Im5vZGVMYWJlbCBtYXJrZG93bi1ub2RlLWxhYmVsIj48cD5Db25kaWNpb25QcmVjaW9NYXlvcjwvcD48L3NwYW4+PC9kaXY+PC9mb3JlaWduT2JqZWN0PjwvZz48L2c+PGcgdHJhbnNmb3JtPSJ0cmFuc2xhdGUoLTE2MC45MjEyMTg4NzIwNzAzLCAwLjAwMTMwNDYyNjQ2NDg0Mzc1KSIgY2xhc3M9Im1lbWJlcnMtZ3JvdXAgdGV4dCI+PGcgdHJhbnNmb3JtPSJ0cmFuc2xhdGUoMCwtMTEuOTk4Njk3MjgwODgzNzg5KSIgc3R5bGU9IiIgY2xhc3M9ImxhYmVsIj48Zm9yZWlnbk9iamVjdCBoZWlnaHQ9IjIzLjk5NzM5NDU2MTc2NzU3OCIgd2lkdGg9IjExNC42NzQ0NzY2MjM1MzUxNiI+PGRpdiBzdHlsZT0iZGlzcGxheTogdGFibGUtY2VsbDsgd2hpdGUtc3BhY2U6IG5vd3JhcDsgbGluZS1oZWlnaHQ6IDEuNTsgbWF4LXdpZHRoOiAxNjhweDsgdGV4dC1hbGlnbjogY2VudGVyOyIgeG1sbnM9Imh0dHA6Ly93d3cudzMub3JnLzE5OTkveGh0bWwiPjxzcGFuIHN0eWxlPSIiIGNsYXNzPSJub2RlTGFiZWwgbWFya2Rvd24tbm9kZS1sYWJlbCI+PHA+LXByZWNpb1RvcGU6IGludDwvcD48L3NwYW4+PC9kaXY+PC9mb3JlaWduT2JqZWN0PjwvZz48L2c+PGcgdHJhbnNmb3JtPSJ0cmFuc2xhdGUoLTE2MC45MjEyMTg4NzIwNzAzLCA0Ny45OTg2OTkxODgyMzI0MikiIGNsYXNzPSJtZXRob2RzLWdyb3VwIHRleHQiPjxnIHRyYW5zZm9ybT0idHJhbnNsYXRlKDAsLTExLjk5ODY5NzI4MDg4Mzc4OSkiIHN0eWxlPSIiIGNsYXNzPSJsYWJlbCI+PGZvcmVpZ25PYmplY3QgaGVpZ2h0PSIyMy45OTczOTQ1NjE3Njc1NzgiIHdpZHRoPSIyMzguNzc2MDMxNDk0MTQwNjIiPjxkaXYgc3R5bGU9ImRpc3BsYXk6IHRhYmxlLWNlbGw7IHdoaXRlLXNwYWNlOiBub3dyYXA7IGxpbmUtaGVpZ2h0OiAxLjU7IG1heC13aWR0aDogMjkwcHg7IHRleHQtYWxpZ246IGNlbnRlcjsiIHhtbG5zPSJodHRwOi8vd3d3LnczLm9yZy8xOTk5L3hodG1sIj48c3BhbiBzdHlsZT0iIiBjbGFzcz0ibm9kZUxhYmVsIG1hcmtkb3duLW5vZGUtbGFiZWwiPjxwPitjdW1wbGVDb24oQXJ0aWN1bG8pIDogOiBib29sZWFuPC9wPjwvc3Bhbj48L2Rpdj48L2ZvcmVpZ25PYmplY3Q+PC9nPjwvZz48ZyBzdHlsZT0iIiBjbGFzcz0iZGl2aWRlciI+PHBhdGggc3R5bGU9IiIgZmlsbD0ibm9uZSIgc3Ryb2tlLXdpZHRoPSIxLjMiIHN0cm9rZT0iIzk5OSIgZD0iTS0xNzIuOTIxMjE4ODcyMDcwMyAtMjMuOTk4Njk1MzczNTM1MTU2IEMtNzIuNTQ4MzMyNDQyMTE4NiAtMjMuOTk4Njk1MzczNTM1MTU2LCAyNy44MjQ1NTM5ODc4MzMxIC0yMy45OTg2OTUzNzM1MzUxNTYsIDE3Mi45MjEyMTg4NzIwNzAzIC0yMy45OTg2OTUzNzM1MzUxNTYgTS0xNzIuOTIxMjE4ODcyMDcwMyAtMjMuOTk4Njk1MzczNTM1MTU2IEMtNDguNjA5NDk2MTQyNTg1NTU2IC0yMy45OTg2OTUzNzM1MzUxNTYsIDc1LjcwMjIyNjU4Njg5OTIgLTIzLjk5ODY5NTM3MzUzNTE1NiwgMTcyLjkyMTIxODg3MjA3MDMgLTIzLjk5ODY5NTM3MzUzNTE1NiI+PC9wYXRoPjwvZz48ZyBzdHlsZT0iIiBjbGFzcz0iZGl2aWRlciI+PHBhdGggc3R5bGU9IiIgZmlsbD0ibm9uZSIgc3Ryb2tlLXdpZHRoPSIxLjMiIHN0cm9rZT0iIzk5OSIgZD0iTS0xNzIuOTIxMjE4ODcyMDcwMyAyMy45OTg2OTkxODgyMzI0MjIgQy05Mi43NzM5OTg1Mzk3MDc1MyAyMy45OTg2OTkxODgyMzI0MjIsIC0xMi42MjY3NzgyMDczNDQ3NTYgMjMuOTk4Njk5MTg4MjMyNDIyLCAxNzIuOTIxMjE4ODcyMDcwMyAyMy45OTg2OTkxODgyMzI0MjIgTS0xNzIuOTIxMjE4ODcyMDcwMyAyMy45OTg2OTkxODgyMzI0MjIgQy04Mi43NjExNjY2NDEwMTQ0OCAyMy45OTg2OTkxODgyMzI0MjIsIDcuMzk4ODg1NTkwMDQxMzQ1NSAyMy45OTg2OTkxODgyMzI0MjIsIDE3Mi45MjEyMTg4NzIwNzAzIDIzLjk5ODY5OTE4ODIzMjQyMiI+PC9wYXRoPjwvZz48L2c+PGcgdHJhbnNmb3JtPSJ0cmFuc2xhdGUoMTU0OS40NzY1MzE5ODI0MjE5LCAzOTMuOTc1MjU3ODczNTM1MTYpIiBpZD0iY2xhc3NJZC1Db25kaWNpb25QZXNvTWF5b3ItNTUiIGNsYXNzPSJub2RlIGRlZmF1bHQiPjxnIGNsYXNzPSJiYXNpYyBsYWJlbC1jb250YWluZXIiPjxwYXRoIHN0eWxlPSIiIGZpbGw9IiNlZWUiIHN0cm9rZS13aWR0aD0iMCIgc3Ryb2tlPSJub25lIiBkPSJNLTE2OS41MDY1MDAyNDQxNDA2MiAtNzEuOTk2MDg5OTM1MzAyNzMgTDE2OS41MDY1MDAyNDQxNDA2MiAtNzEuOTk2MDg5OTM1MzAyNzMgTDE2OS41MDY1MDAyNDQxNDA2MiA3MS45OTYwODk5MzUzMDI3MyBMLTE2OS41MDY1MDAyNDQxNDA2MiA3MS45OTYwODk5MzUzMDI3MyI+PC9wYXRoPjxwYXRoIHN0eWxlPSIiIGZpbGw9Im5vbmUiIHN0cm9rZS13aWR0aD0iMS4zIiBzdHJva2U9IiM5OTkiIGQ9Ik0tMTY5LjUwNjUwMDI0NDE0MDYyIC03MS45OTYwODk5MzUzMDI3MyBDLTk1LjY3Mjk3MjAwNjI0NDQ4IC03MS45OTYwODk5MzUzMDI3MywgLTIxLjgzOTQ0Mzc2ODM0ODMzMiAtNzEuOTk2MDg5OTM1MzAyNzMsIDE2OS41MDY1MDAyNDQxNDA2MiAtNzEuOTk2MDg5OTM1MzAyNzMgTS0xNjkuNTA2NTAwMjQ0MTQwNjIgLTcxLjk5NjA4OTkzNTMwMjczIEMtNjQuNzk3MTU3NTE4NzcxMzQgLTcxLjk5NjA4OTkzNTMwMjczLCAzOS45MTIxODUyMDY1OTc5NCAtNzEuOTk2MDg5OTM1MzAyNzMsIDE2OS41MDY1MDAyNDQxNDA2MiAtNzEuOTk2MDg5OTM1MzAyNzMgTTE2OS41MDY1MDAyNDQxNDA2MiAtNzEuOTk2MDg5OTM1MzAyNzMgQzE2OS41MDY1MDAyNDQxNDA2MiAtMzQuNjY1NTgyMzY0NzA2MTI1LCAxNjkuNTA2NTAwMjQ0MTQwNjIgMi42NjQ5MjUyMDU4OTA0ODM1LCAxNjkuNTA2NTAwMjQ0MTQwNjIgNzEuOTk2MDg5OTM1MzAyNzMgTTE2OS41MDY1MDAyNDQxNDA2MiAtNzEuOTk2MDg5OTM1MzAyNzMgQzE2OS41MDY1MDAyNDQxNDA2MiAtMjcuODQwMzgwNjYxNDA4MTYsIDE2OS41MDY1MDAyNDQxNDA2MiAxNi4zMTUzMjg2MTI0ODY0MSwgMTY5LjUwNjUwMDI0NDE0MDYyIDcxLjk5NjA4OTkzNTMwMjczIE0xNjkuNTA2NTAwMjQ0MTQwNjIgNzEuOTk2MDg5OTM1MzAyNzMgQzUzLjM0MTE0MDc1ODQ5MTMzNSA3MS45OTYwODk5MzUzMDI3MywgLTYyLjgyNDIxODcyNzE1Nzk1NSA3MS45OTYwODk5MzUzMDI3MywgLTE2OS41MDY1MDAyNDQxNDA2MiA3MS45OTYwODk5MzUzMDI3MyBNMTY5LjUwNjUwMDI0NDE0MDYyIDcxLjk5NjA4OTkzNTMwMjczIEM4OC42NDk1ODgwOTMwMDEyIDcxLjk5NjA4OTkzNTMwMjczLCA3Ljc5MjY3NTk0MTg2MTc3MzUgNzEuOTk2MDg5OTM1MzAyNzMsIC0xNjkuNTA2NTAwMjQ0MTQwNjIgNzEuOTk2MDg5OTM1MzAyNzMgTS0xNjkuNTA2NTAwMjQ0MTQwNjIgNzEuOTk2MDg5OTM1MzAyNzMgQy0xNjkuNTA2NTAwMjQ0MTQwNjIgNDAuODgxNDY2ODk4MjU4Njk0LCAtMTY5LjUwNjUwMDI0NDE0MDYyIDkuNzY2ODQzODYxMjE0NjQ2LCAtMTY5LjUwNjUwMDI0NDE0MDYyIC03MS45OTYwODk5MzUzMDI3MyBNLTE2OS41MDY1MDAyNDQxNDA2MiA3MS45OTYwODk5MzUzMDI3MyBDLTE2OS41MDY1MDAyNDQxNDA2MiAyMy41ODAzMTY5MDAwMjAzODUsIC0xNjkuNTA2NTAwMjQ0MTQwNjIgLTI0LjgzNTQ1NjEzNTI2MTk2NCwgLTE2OS41MDY1MDAyNDQxNDA2MiAtNzEuOTk2MDg5OTM1MzAyNzMiPjwvcGF0aD48L2c+PGcgdHJhbnNmb3JtPSJ0cmFuc2xhdGUoMCwgLTQ3Ljk5NjA4OTkzNTMwMjczNCkiIGNsYXNzPSJhbm5vdGF0aW9uLWdyb3VwIHRleHQiPjwvZz48ZyB0cmFuc2Zvcm09InRyYW5zbGF0ZSgtNzYuMjM2OTc2NjIzNTM1MTYsIC00Ny45OTYwODk5MzUzMDI3MzQpIiBjbGFzcz0ibGFiZWwtZ3JvdXAgdGV4dCI+PGcgdHJhbnNmb3JtPSJ0cmFuc2xhdGUoMCwtMTEuOTk4Njk3MjgwODgzNzg5KSIgc3R5bGU9ImZvbnQtd2VpZ2h0OiBib2xkZXIiIGNsYXNzPSJsYWJlbCI+PGZvcmVpZ25PYmplY3QgaGVpZ2h0PSIyMy45OTczOTQ1NjE3Njc1NzgiIHdpZHRoPSIxNTIuNDczOTUzMjQ3MDcwMyI+PGRpdiBzdHlsZT0iZGlzcGxheTogdGFibGUtY2VsbDsgd2hpdGUtc3BhY2U6IG5vd3JhcDsgbGluZS1oZWlnaHQ6IDEuNTsgbWF4LXdpZHRoOiAyMDBweDsgdGV4dC1hbGlnbjogY2VudGVyOyIgeG1sbnM9Imh0dHA6Ly93d3cudzMub3JnLzE5OTkveGh0bWwiPjxzcGFuIHN0eWxlPSIiIGNsYXNzPSJub2RlTGFiZWwgbWFya2Rvd24tbm9kZS1sYWJlbCI+PHA+Q29uZGljaW9uUGVzb01heW9yPC9wPjwvc3Bhbj48L2Rpdj48L2ZvcmVpZ25PYmplY3Q+PC9nPjwvZz48ZyB0cmFuc2Zvcm09InRyYW5zbGF0ZSgtMTU3LjUwNjUwMDI0NDE0MDYyLCAwLjAwMTMwNDYyNjQ2NDg0Mzc1KSIgY2xhc3M9Im1lbWJlcnMtZ3JvdXAgdGV4dCI+PGcgdHJhbnNmb3JtPSJ0cmFuc2xhdGUoMCwtMTEuOTk4Njk3MjgwODgzNzg5KSIgc3R5bGU9IiIgY2xhc3M9ImxhYmVsIj48Zm9yZWlnbk9iamVjdCBoZWlnaHQ9IjIzLjk5NzM5NDU2MTc2NzU3OCIgd2lkdGg9IjEwMi40NDc5MTQxMjM1MzUxNiI+PGRpdiBzdHlsZT0iZGlzcGxheTogdGFibGUtY2VsbDsgd2hpdGUtc3BhY2U6IG5vd3JhcDsgbGluZS1oZWlnaHQ6IDEuNTsgbWF4LXdpZHRoOiAxNThweDsgdGV4dC1hbGlnbjogY2VudGVyOyIgeG1sbnM9Imh0dHA6Ly93d3cudzMub3JnLzE5OTkveGh0bWwiPjxzcGFuIHN0eWxlPSIiIGNsYXNzPSJub2RlTGFiZWwgbWFya2Rvd24tbm9kZS1sYWJlbCI+PHA+LXBlc29Ub3BlOiBpbnQ8L3A+PC9zcGFuPjwvZGl2PjwvZm9yZWlnbk9iamVjdD48L2c+PC9nPjxnIHRyYW5zZm9ybT0idHJhbnNsYXRlKC0xNTcuNTA2NTAwMjQ0MTQwNjIsIDQ3Ljk5ODY5OTE4ODIzMjQyKSIgY2xhc3M9Im1ldGhvZHMtZ3JvdXAgdGV4dCI+PGcgdHJhbnNmb3JtPSJ0cmFuc2xhdGUoMCwtMTEuOTk4Njk3MjgwODgzNzg5KSIgc3R5bGU9IiIgY2xhc3M9ImxhYmVsIj48Zm9yZWlnbk9iamVjdCBoZWlnaHQ9IjIzLjk5NzM5NDU2MTc2NzU3OCIgd2lkdGg9IjIzOC43NzYwMzE0OTQxNDA2MiI+PGRpdiBzdHlsZT0iZGlzcGxheTogdGFibGUtY2VsbDsgd2hpdGUtc3BhY2U6IG5vd3JhcDsgbGluZS1oZWlnaHQ6IDEuNTsgbWF4LXdpZHRoOiAyOTBweDsgdGV4dC1hbGlnbjogY2VudGVyOyIgeG1sbnM9Imh0dHA6Ly93d3cudzMub3JnLzE5OTkveGh0bWwiPjxzcGFuIHN0eWxlPSIiIGNsYXNzPSJub2RlTGFiZWwgbWFya2Rvd24tbm9kZS1sYWJlbCI+PHA+K2N1bXBsZUNvbihBcnRpY3VsbykgOiA6IGJvb2xlYW48L3A+PC9zcGFuPjwvZGl2PjwvZm9yZWlnbk9iamVjdD48L2c+PC9nPjxnIHN0eWxlPSIiIGNsYXNzPSJkaXZpZGVyIj48cGF0aCBzdHlsZT0iIiBmaWxsPSJub25lIiBzdHJva2Utd2lkdGg9IjEuMyIgc3Ryb2tlPSIjOTk5IiBkPSJNLTE2OS41MDY1MDAyNDQxNDA2MiAtMjMuOTk4Njk1MzczNTM1MTU2IEMtNDEuMjExNjMxNTYzMjI5MDc2IC0yMy45OTg2OTUzNzM1MzUxNTYsIDg3LjA4MzIzNzExNzY4MjQ3IC0yMy45OTg2OTUzNzM1MzUxNTYsIDE2OS41MDY1MDAyNDQxNDA2MiAtMjMuOTk4Njk1MzczNTM1MTU2IE0tMTY5LjUwNjUwMDI0NDE0MDYyIC0yMy45OTg2OTUzNzM1MzUxNTYgQy02Ni41MjQzOTA3MTEzNzMyMyAtMjMuOTk4Njk1MzczNTM1MTU2LCAzNi40NTc3MTg4MjEzOTQxNyAtMjMuOTk4Njk1MzczNTM1MTU2LCAxNjkuNTA2NTAwMjQ0MTQwNjIgLTIzLjk5ODY5NTM3MzUzNTE1NiI+PC9wYXRoPjwvZz48ZyBzdHlsZT0iIiBjbGFzcz0iZGl2aWRlciI+PHBhdGggc3R5bGU9IiIgZmlsbD0ibm9uZSIgc3Ryb2tlLXdpZHRoPSIxLjMiIHN0cm9rZT0iIzk5OSIgZD0iTS0xNjkuNTA2NTAwMjQ0MTQwNjIgMjMuOTk4Njk5MTg4MjMyNDIyIEMtOTIuODA1OTQyMDE1MjE4NzIgMjMuOTk4Njk5MTg4MjMyNDIyLCAtMTYuMTA1MzgzNzg2Mjk2ODEyIDIzLjk5ODY5OTE4ODIzMjQyMiwgMTY5LjUwNjUwMDI0NDE0MDYyIDIzLjk5ODY5OTE4ODIzMjQyMiBNLTE2OS41MDY1MDAyNDQxNDA2MiAyMy45OTg2OTkxODgyMzI0MjIgQy04MC42MDM4MTgyMDYxMTE3IDIzLjk5ODY5OTE4ODIzMjQyMiwgOC4yOTg4NjM4MzE5MTcyMzEgMjMuOTk4Njk5MTg4MjMyNDIyLCAxNjkuNTA2NTAwMjQ0MTQwNjIgMjMuOTk4Njk5MTg4MjMyNDIyIj48L3BhdGg+PC9nPjwvZz48ZyB0cmFuc2Zvcm09InRyYW5zbGF0ZSgxOTI0LjA4MTk4NTQ3MzYzMjgsIDM5My45NzUyNTc4NzM1MzUxNikiIGlkPSJjbGFzc0lkLUNvbmRpY2lvbk9SLTU2IiBjbGFzcz0ibm9kZSBkZWZhdWx0Ij48ZyBjbGFzcz0iYmFzaWMgbGFiZWwtY29udGFpbmVyIj48cGF0aCBzdHlsZT0iIiBmaWxsPSIjZWVlIiBzdHJva2Utd2lkdGg9IjAiIHN0cm9rZT0ibm9uZSIgZD0iTS0xNTUuMDk4OTUzMjQ3MDcwMyAtODMuOTk0Nzg5MTIzNTM1MTYgTDE1NS4wOTg5NTMyNDcwNzAzIC04My45OTQ3ODkxMjM1MzUxNiBMMTU1LjA5ODk1MzI0NzA3MDMgODMuOTk0Nzg5MTIzNTM1MTYgTC0xNTUuMDk4OTUzMjQ3MDcwMyA4My45OTQ3ODkxMjM1MzUxNiI+PC9wYXRoPjxwYXRoIHN0eWxlPSIiIGZpbGw9Im5vbmUiIHN0cm9rZS13aWR0aD0iMS4zIiBzdHJva2U9IiM5OTkiIGQ9Ik0tMTU1LjA5ODk1MzI0NzA3MDMgLTgzLjk5NDc4OTEyMzUzNTE2IEMtNzAuMjE5MzcxMjA2NjY5MTcgLTgzLjk5NDc4OTEyMzUzNTE2LCAxNC42NjAyMTA4MzM3MzE5OCAtODMuOTk0Nzg5MTIzNTM1MTYsIDE1NS4wOTg5NTMyNDcwNzAzIC04My45OTQ3ODkxMjM1MzUxNiBNLTE1NS4wOTg5NTMyNDcwNzAzIC04My45OTQ3ODkxMjM1MzUxNiBDLTMyLjA3ODQ0NjI3ODA2NTU1NiAtODMuOTk0Nzg5MTIzNTM1MTYsIDkwLjk0MjA2MDY5MDkzOTIgLTgzLjk5NDc4OTEyMzUzNTE2LCAxNTUuMDk4OTUzMjQ3MDcwMyAtODMuOTk0Nzg5MTIzNTM1MTYgTTE1NS4wOTg5NTMyNDcwNzAzIC04My45OTQ3ODkxMjM1MzUxNiBDMTU1LjA5ODk1MzI0NzA3MDMgLTE4LjU3MDUzNTQ4NjYwMTQ0MywgMTU1LjA5ODk1MzI0NzA3MDMgNDYuODUzNzE4MTUwMzMyMjcsIDE1NS4wOTg5NTMyNDcwNzAzIDgzLjk5NDc4OTEyMzUzNTE2IE0xNTUuMDk4OTUzMjQ3MDcwMyAtODMuOTk0Nzg5MTIzNTM1MTYgQzE1NS4wOTg5NTMyNDcwNzAzIC0yOC4yNDQ1NTMyNTc2MzIyMjYsIDE1NS4wOTg5NTMyNDcwNzAzIDI3LjUwNTY4MjYwODI3MDcwMywgMTU1LjA5ODk1MzI0NzA3MDMgODMuOTk0Nzg5MTIzNTM1MTYgTTE1NS4wOTg5NTMyNDcwNzAzIDgzLjk5NDc4OTEyMzUzNTE2IEM3OS4yNjA4NjExMzgzNTEyIDgzLjk5NDc4OTEyMzUzNTE2LCAzLjQyMjc2OTAyOTYzMjA5MyA4My45OTQ3ODkxMjM1MzUxNiwgLTE1NS4wOTg5NTMyNDcwNzAzIDgzLjk5NDc4OTEyMzUzNTE2IE0xNTUuMDk4OTUzMjQ3MDcwMyA4My45OTQ3ODkxMjM1MzUxNiBDNDcuMDQ5MDQ2Mjk2NzcyMTYgODMuOTk0Nzg5MTIzNTM1MTYsIC02MS4wMDA4NjA2NTM1MjU5OSA4My45OTQ3ODkxMjM1MzUxNiwgLTE1NS4wOTg5NTMyNDcwNzAzIDgzLjk5NDc4OTEyMzUzNTE2IE0tMTU1LjA5ODk1MzI0NzA3MDMgODMuOTk0Nzg5MTIzNTM1MTYgQy0xNTUuMDk4OTUzMjQ3MDcwMyAyMS45Njc1MTcwNzg2MjE3NCwgLTE1NS4wOTg5NTMyNDcwNzAzIC00MC4wNTk3NTQ5NjYyOTE2OCwgLTE1NS4wOTg5NTMyNDcwNzAzIC04My45OTQ3ODkxMjM1MzUxNiBNLTE1NS4wOTg5NTMyNDcwNzAzIDgzLjk5NDc4OTEyMzUzNTE2IEMtMTU1LjA5ODk1MzI0NzA3MDMgMjMuMjkzNDgxMDkzMDQ5MzQ0LCAtMTU1LjA5ODk1MzI0NzA3MDMgLTM3LjQwNzgyNjkzNzQzNjQ3LCAtMTU1LjA5ODk1MzI0NzA3MDMgLTgzLjk5NDc4OTEyMzUzNTE2Ij48L3BhdGg+PC9nPjxnIHRyYW5zZm9ybT0idHJhbnNsYXRlKDAsIC01OS45OTQ3ODkxMjM1MzUxNTYpIiBjbGFzcz0iYW5ub3RhdGlvbi1ncm91cCB0ZXh0Ij48L2c+PGcgdHJhbnNmb3JtPSJ0cmFuc2xhdGUoLTQ3LjQyMTg3ODgxNDY5NzI2NiwgLTU5Ljk5NDc4OTEyMzUzNTE1NikiIGNsYXNzPSJsYWJlbC1ncm91cCB0ZXh0Ij48ZyB0cmFuc2Zvcm09InRyYW5zbGF0ZSgwLC0xMS45OTg2OTcyODA4ODM3ODkpIiBzdHlsZT0iZm9udC13ZWlnaHQ6IGJvbGRlciIgY2xhc3M9ImxhYmVsIj48Zm9yZWlnbk9iamVjdCBoZWlnaHQ9IjIzLjk5NzM5NDU2MTc2NzU3OCIgd2lkdGg9Ijk0Ljg0Mzc1NzYyOTM5NDUzIj48ZGl2IHN0eWxlPSJkaXNwbGF5OiB0YWJsZS1jZWxsOyB3aGl0ZS1zcGFjZTogbm93cmFwOyBsaW5lLWhlaWdodDogMS41OyBtYXgtd2lkdGg6IDE0M3B4OyB0ZXh0LWFsaWduOiBjZW50ZXI7IiB4bWxucz0iaHR0cDovL3d3dy53My5vcmcvMTk5OS94aHRtbCI+PHNwYW4gc3R5bGU9IiIgY2xhc3M9Im5vZGVMYWJlbCBtYXJrZG93bi1ub2RlLWxhYmVsIj48cD5Db25kaWNpb25PUjwvcD48L3NwYW4+PC9kaXY+PC9mb3JlaWduT2JqZWN0PjwvZz48L2c+PGcgdHJhbnNmb3JtPSJ0cmFuc2xhdGUoLTE0My4wOTg5NTMyNDcwNzAzLCAtMTEuOTk3Mzk0NTYxNzY3NTc4KSIgY2xhc3M9Im1lbWJlcnMtZ3JvdXAgdGV4dCI+PGcgdHJhbnNmb3JtPSJ0cmFuc2xhdGUoMCwtMTEuOTk4Njk3MjgwODgzNzg5KSIgc3R5bGU9IiIgY2xhc3M9ImxhYmVsIj48Zm9yZWlnbk9iamVjdCBoZWlnaHQ9IjIzLjk5NzM5NDU2MTc2NzU3OCIgd2lkdGg9IjEwMy4wNzI5MTQxMjM1MzUxNiI+PGRpdiBzdHlsZT0iZGlzcGxheTogdGFibGUtY2VsbDsgd2hpdGUtc3BhY2U6IG5vd3JhcDsgbGluZS1oZWlnaHQ6IDEuNTsgbWF4LXdpZHRoOiAxNThweDsgdGV4dC1hbGlnbjogY2VudGVyOyIgeG1sbnM9Imh0dHA6Ly93d3cudzMub3JnLzE5OTkveGh0bWwiPjxzcGFuIHN0eWxlPSIiIGNsYXNzPSJub2RlTGFiZWwgbWFya2Rvd24tbm9kZS1sYWJlbCI+PHA+LWMxOiBDb25kaWNpb248L3A+PC9zcGFuPjwvZGl2PjwvZm9yZWlnbk9iamVjdD48L2c+PGcgdHJhbnNmb3JtPSJ0cmFuc2xhdGUoMCwxMS45OTg2OTcyODA4ODM3ODkpIiBzdHlsZT0iIiBjbGFzcz0ibGFiZWwiPjxmb3JlaWduT2JqZWN0IGhlaWdodD0iMjMuOTk3Mzk0NTYxNzY3NTc4IiB3aWR0aD0iMTAzLjA3MjkxNDEyMzUzNTE2Ij48ZGl2IHN0eWxlPSJkaXNwbGF5OiB0YWJsZS1jZWxsOyB3aGl0ZS1zcGFjZTogbm93cmFwOyBsaW5lLWhlaWdodDogMS41OyBtYXgtd2lkdGg6IDE1OHB4OyB0ZXh0LWFsaWduOiBjZW50ZXI7IiB4bWxucz0iaHR0cDovL3d3dy53My5vcmcvMTk5OS94aHRtbCI+PHNwYW4gc3R5bGU9IiIgY2xhc3M9Im5vZGVMYWJlbCBtYXJrZG93bi1ub2RlLWxhYmVsIj48cD4tYzI6IENvbmRpY2lvbjwvcD48L3NwYW4+PC9kaXY+PC9mb3JlaWduT2JqZWN0PjwvZz48L2c+PGcgdHJhbnNmb3JtPSJ0cmFuc2xhdGUoLTE0My4wOTg5NTMyNDcwNzAzLCA1OS45OTczOTQ1NjE3Njc1OCkiIGNsYXNzPSJtZXRob2RzLWdyb3VwIHRleHQiPjxnIHRyYW5zZm9ybT0idHJhbnNsYXRlKDAsLTExLjk5ODY5NzI4MDg4Mzc4OSkiIHN0eWxlPSIiIGNsYXNzPSJsYWJlbCI+PGZvcmVpZ25PYmplY3QgaGVpZ2h0PSIyMy45OTczOTQ1NjE3Njc1NzgiIHdpZHRoPSIyMzguNzc2MDMxNDk0MTQwNjIiPjxkaXYgc3R5bGU9ImRpc3BsYXk6IHRhYmxlLWNlbGw7IHdoaXRlLXNwYWNlOiBub3dyYXA7IGxpbmUtaGVpZ2h0OiAxLjU7IG1heC13aWR0aDogMjkwcHg7IHRleHQtYWxpZ246IGNlbnRlcjsiIHhtbG5zPSJodHRwOi8vd3d3LnczLm9yZy8xOTk5L3hodG1sIj48c3BhbiBzdHlsZT0iIiBjbGFzcz0ibm9kZUxhYmVsIG1hcmtkb3duLW5vZGUtbGFiZWwiPjxwPitjdW1wbGVDb24oQXJ0aWN1bG8pIDogOiBib29sZWFuPC9wPjwvc3Bhbj48L2Rpdj48L2ZvcmVpZ25PYmplY3Q+PC9nPjwvZz48ZyBzdHlsZT0iIiBjbGFzcz0iZGl2aWRlciI+PHBhdGggc3R5bGU9IiIgZmlsbD0ibm9uZSIgc3Ryb2tlLXdpZHRoPSIxLjMiIHN0cm9rZT0iIzk5OSIgZD0iTS0xNTUuMDk4OTUzMjQ3MDcwMyAtMzUuOTk3Mzk0NTYxNzY3NTggQy04My4xNzk2NzU4ODAwOTUxNyAtMzUuOTk3Mzk0NTYxNzY3NTgsIC0xMS4yNjAzOTg1MTMxMjAwMzcgLTM1Ljk5NzM5NDU2MTc2NzU4LCAxNTUuMDk4OTUzMjQ3MDcwMyAtMzUuOTk3Mzk0NTYxNzY3NTggTS0xNTUuMDk4OTUzMjQ3MDcwMyAtMzUuOTk3Mzk0NTYxNzY3NTggQy02OC43NjY2NzgxNTM2MjU1MiAtMzUuOTk3Mzk0NTYxNzY3NTgsIDE3LjU2NTU5NjkzOTgxOTI3MiAtMzUuOTk3Mzk0NTYxNzY3NTgsIDE1NS4wOTg5NTMyNDcwNzAzIC0zNS45OTczOTQ1NjE3Njc1OCI+PC9wYXRoPjwvZz48ZyBzdHlsZT0iIiBjbGFzcz0iZGl2aWRlciI+PHBhdGggc3R5bGU9IiIgZmlsbD0ibm9uZSIgc3Ryb2tlLXdpZHRoPSIxLjMiIHN0cm9rZT0iIzk5OSIgZD0iTS0xNTUuMDk4OTUzMjQ3MDcwMyAzNS45OTczOTQ1NjE3Njc1OCBDLTU2LjgzMjIwMjYzMTM0NTQxIDM1Ljk5NzM5NDU2MTc2NzU4LCA0MS40MzQ1NDc5ODQzNzk0OSAzNS45OTczOTQ1NjE3Njc1OCwgMTU1LjA5ODk1MzI0NzA3MDMgMzUuOTk3Mzk0NTYxNzY3NTggTS0xNTUuMDk4OTUzMjQ3MDcwMyAzNS45OTczOTQ1NjE3Njc1OCBDLTY3Ljk5MTQ3Mjg4NzQwOTY2IDM1Ljk5NzM5NDU2MTc2NzU4LCAxOS4xMTYwMDc0NzIyNTEgMzUuOTk3Mzk0NTYxNzY3NTgsIDE1NS4wOTg5NTMyNDcwNzAzIDM1Ljk5NzM5NDU2MTc2NzU4Ij48L3BhdGg+PC9nPjwvZz48ZyB0cmFuc2Zvcm09InRyYW5zbGF0ZSgyMjg2Ljc5NjE3MzA5NTcwMywgMzkzLjk3NTI1Nzg3MzUzNTE2KSIgaWQ9ImNsYXNzSWQtQ29uZGljaW9uQU5ELTU3IiBjbGFzcz0ibm9kZSBkZWZhdWx0Ij48ZyBjbGFzcz0iYmFzaWMgbGFiZWwtY29udGFpbmVyIj48cGF0aCBzdHlsZT0iIiBmaWxsPSIjZWVlIiBzdHJva2Utd2lkdGg9IjAiIHN0cm9rZT0ibm9uZSIgZD0iTS0xNTcuNjE1MjM0Mzc1IC04My45OTQ3ODkxMjM1MzUxNiBMMTU3LjYxNTIzNDM3NSAtODMuOTk0Nzg5MTIzNTM1MTYgTDE1Ny42MTUyMzQzNzUgODMuOTk0Nzg5MTIzNTM1MTYgTC0xNTcuNjE1MjM0Mzc1IDgzLjk5NDc4OTEyMzUzNTE2Ij48L3BhdGg+PHBhdGggc3R5bGU9IiIgZmlsbD0ibm9uZSIgc3Ryb2tlLXdpZHRoPSIxLjMiIHN0cm9rZT0iIzk5OSIgZD0iTS0xNTcuNjE1MjM0Mzc1IC04My45OTQ3ODkxMjM1MzUxNiBDLTMzLjc2MDgyMzQ5MDQyODg5IC04My45OTQ3ODkxMjM1MzUxNiwgOTAuMDkzNTg3Mzk0MTQyMjIgLTgzLjk5NDc4OTEyMzUzNTE2LCAxNTcuNjE1MjM0Mzc1IC04My45OTQ3ODkxMjM1MzUxNiBNLTE1Ny42MTUyMzQzNzUgLTgzLjk5NDc4OTEyMzUzNTE2IEMtODQuODExMzMxODUzNzgyMTkgLTgzLjk5NDc4OTEyMzUzNTE2LCAtMTIuMDA3NDI5MzMyNTY0Mzg1IC04My45OTQ3ODkxMjM1MzUxNiwgMTU3LjYxNTIzNDM3NSAtODMuOTk0Nzg5MTIzNTM1MTYgTTE1Ny42MTUyMzQzNzUgLTgzLjk5NDc4OTEyMzUzNTE2IEMxNTcuNjE1MjM0Mzc1IC0zOC4yMTU0NzkyMzc0MzgyNSwgMTU3LjYxNTIzNDM3NSA3LjU2MzgzMDY0ODY1ODY1MTUsIDE1Ny42MTUyMzQzNzUgODMuOTk0Nzg5MTIzNTM1MTYgTTE1Ny42MTUyMzQzNzUgLTgzLjk5NDc4OTEyMzUzNTE2IEMxNTcuNjE1MjM0Mzc1IC00MC4zNDMxMDM0MjA2MTIxOCwgMTU3LjYxNTIzNDM3NSAzLjMwODU4MjI4MjMxMDc5NDcsIDE1Ny42MTUyMzQzNzUgODMuOTk0Nzg5MTIzNTM1MTYgTTE1Ny42MTUyMzQzNzUgODMuOTk0Nzg5MTIzNTM1MTYgQzQzLjQ2Mjg3NjE2MDkyMDIyIDgzLjk5NDc4OTEyMzUzNTE2LCAtNzAuNjg5NDgyMDUzMTU5NTcgODMuOTk0Nzg5MTIzNTM1MTYsIC0xNTcuNjE1MjM0Mzc1IDgzLjk5NDc4OTEyMzUzNTE2IE0xNTcuNjE1MjM0Mzc1IDgzLjk5NDc4OTEyMzUzNTE2IEM2NS4zNjQ3NjkxMDM2MjIxMSA4My45OTQ3ODkxMjM1MzUxNiwgLTI2Ljg4NTY5NjE2Nzc1NTc4MiA4My45OTQ3ODkxMjM1MzUxNiwgLTE1Ny42MTUyMzQzNzUgODMuOTk0Nzg5MTIzNTM1MTYgTS0xNTcuNjE1MjM0Mzc1IDgzLjk5NDc4OTEyMzUzNTE2IEMtMTU3LjYxNTIzNDM3NSA0My4wODIyMTA0MzUxNTQ5OCwgLTE1Ny42MTUyMzQzNzUgMi4xNjk2MzE3NDY3NzQ3OTc0LCAtMTU3LjYxNTIzNDM3NSAtODMuOTk0Nzg5MTIzNTM1MTYgTS0xNTcuNjE1MjM0Mzc1IDgzLjk5NDc4OTEyMzUzNTE2IEMtMTU3LjYxNTIzNDM3NSAzNy42ODYxMTA1MDE4OTgyMzQsIC0xNTcuNjE1MjM0Mzc1IC04LjYyMjU2ODExOTczODY4OCwgLTE1Ny42MTUyMzQzNzUgLTgzLjk5NDc4OTEyMzUzNTE2Ij48L3BhdGg+PC9nPjxnIHRyYW5zZm9ybT0idHJhbnNsYXRlKDAsIC01OS45OTQ3ODkxMjM1MzUxNTYpIiBjbGFzcz0iYW5ub3RhdGlvbi1ncm91cCB0ZXh0Ij48L2c+PGcgdHJhbnNmb3JtPSJ0cmFuc2xhdGUoLTUyLjQ1NDQyNTgxMTc2NzU4LCAtNTkuOTk0Nzg5MTIzNTM1MTU2KSIgY2xhc3M9ImxhYmVsLWdyb3VwIHRleHQiPjxnIHRyYW5zZm9ybT0idHJhbnNsYXRlKDAsLTExLjk5ODY5NzI4MDg4Mzc4OSkiIHN0eWxlPSJmb250LXdlaWdodDogYm9sZGVyIiBjbGFzcz0ibGFiZWwiPjxmb3JlaWduT2JqZWN0IGhlaWdodD0iMjMuOTk3Mzk0NTYxNzY3NTc4IiB3aWR0aD0iMTA0LjkwODg1MTYyMzUzNTE2Ij48ZGl2IHN0eWxlPSJkaXNwbGF5OiB0YWJsZS1jZWxsOyB3aGl0ZS1zcGFjZTogbm93cmFwOyBsaW5lLWhlaWdodDogMS41OyBtYXgtd2lkdGg6IDE1NXB4OyB0ZXh0LWFsaWduOiBjZW50ZXI7IiB4bWxucz0iaHR0cDovL3d3dy53My5vcmcvMTk5OS94aHRtbCI+PHNwYW4gc3R5bGU9IiIgY2xhc3M9Im5vZGVMYWJlbCBtYXJrZG93bi1ub2RlLWxhYmVsIj48cD5Db25kaWNpb25BTkQ8L3A+PC9zcGFuPjwvZGl2PjwvZm9yZWlnbk9iamVjdD48L2c+PC9nPjxnIHRyYW5zZm9ybT0idHJhbnNsYXRlKC0xNDUuNjE1MjM0Mzc1LCAtMTEuOTk3Mzk0NTYxNzY3NTc4KSIgY2xhc3M9Im1lbWJlcnMtZ3JvdXAgdGV4dCI+PGcgdHJhbnNmb3JtPSJ0cmFuc2xhdGUoMCwtMTEuOTk4Njk3MjgwODgzNzg5KSIgc3R5bGU9IiIgY2xhc3M9ImxhYmVsIj48Zm9yZWlnbk9iamVjdCBoZWlnaHQ9IjIzLjk5NzM5NDU2MTc2NzU3OCIgd2lkdGg9IjEwMy4wNzI5MTQxMjM1MzUxNiI+PGRpdiBzdHlsZT0iZGlzcGxheTogdGFibGUtY2VsbDsgd2hpdGUtc3BhY2U6IG5vd3JhcDsgbGluZS1oZWlnaHQ6IDEuNTsgbWF4LXdpZHRoOiAxNThweDsgdGV4dC1hbGlnbjogY2VudGVyOyIgeG1sbnM9Imh0dHA6Ly93d3cudzMub3JnLzE5OTkveGh0bWwiPjxzcGFuIHN0eWxlPSIiIGNsYXNzPSJub2RlTGFiZWwgbWFya2Rvd24tbm9kZS1sYWJlbCI+PHA+LWMxOiBDb25kaWNpb248L3A+PC9zcGFuPjwvZGl2PjwvZm9yZWlnbk9iamVjdD48L2c+PGcgdHJhbnNmb3JtPSJ0cmFuc2xhdGUoMCwxMS45OTg2OTcyODA4ODM3ODkpIiBzdHlsZT0iIiBjbGFzcz0ibGFiZWwiPjxmb3JlaWduT2JqZWN0IGhlaWdodD0iMjMuOTk3Mzk0NTYxNzY3NTc4IiB3aWR0aD0iMTAzLjA3MjkxNDEyMzUzNTE2Ij48ZGl2IHN0eWxlPSJkaXNwbGF5OiB0YWJsZS1jZWxsOyB3aGl0ZS1zcGFjZTogbm93cmFwOyBsaW5lLWhlaWdodDogMS41OyBtYXgtd2lkdGg6IDE1OHB4OyB0ZXh0LWFsaWduOiBjZW50ZXI7IiB4bWxucz0iaHR0cDovL3d3dy53My5vcmcvMTk5OS94aHRtbCI+PHNwYW4gc3R5bGU9IiIgY2xhc3M9Im5vZGVMYWJlbCBtYXJrZG93bi1ub2RlLWxhYmVsIj48cD4tYzI6IENvbmRpY2lvbjwvcD48L3NwYW4+PC9kaXY+PC9mb3JlaWduT2JqZWN0PjwvZz48L2c+PGcgdHJhbnNmb3JtPSJ0cmFuc2xhdGUoLTE0NS42MTUyMzQzNzUsIDU5Ljk5NzM5NDU2MTc2NzU4KSIgY2xhc3M9Im1ldGhvZHMtZ3JvdXAgdGV4dCI+PGcgdHJhbnNmb3JtPSJ0cmFuc2xhdGUoMCwtMTEuOTk4Njk3MjgwODgzNzg5KSIgc3R5bGU9IiIgY2xhc3M9ImxhYmVsIj48Zm9yZWlnbk9iamVjdCBoZWlnaHQ9IjIzLjk5NzM5NDU2MTc2NzU3OCIgd2lkdGg9IjIzOC43NzYwMzE0OTQxNDA2MiI+PGRpdiBzdHlsZT0iZGlzcGxheTogdGFibGUtY2VsbDsgd2hpdGUtc3BhY2U6IG5vd3JhcDsgbGluZS1oZWlnaHQ6IDEuNTsgbWF4LXdpZHRoOiAyOTBweDsgdGV4dC1hbGlnbjogY2VudGVyOyIgeG1sbnM9Imh0dHA6Ly93d3cudzMub3JnLzE5OTkveGh0bWwiPjxzcGFuIHN0eWxlPSIiIGNsYXNzPSJub2RlTGFiZWwgbWFya2Rvd24tbm9kZS1sYWJlbCI+PHA+K2N1bXBsZUNvbihBcnRpY3VsbykgOiA6IGJvb2xlYW48L3A+PC9zcGFuPjwvZGl2PjwvZm9yZWlnbk9iamVjdD48L2c+PC9nPjxnIHN0eWxlPSIiIGNsYXNzPSJkaXZpZGVyIj48cGF0aCBzdHlsZT0iIiBmaWxsPSJub25lIiBzdHJva2Utd2lkdGg9IjEuMyIgc3Ryb2tlPSIjOTk5IiBkPSJNLTE1Ny42MTUyMzQzNzUgLTM1Ljk5NzM5NDU2MTc2NzU4IEMtNTcuNDgxMzMyNTMxMzI4MTggLTM1Ljk5NzM5NDU2MTc2NzU4LCA0Mi42NTI1NjkzMTIzNDM2NDQgLTM1Ljk5NzM5NDU2MTc2NzU4LCAxNTcuNjE1MjM0Mzc1IC0zNS45OTczOTQ1NjE3Njc1OCBNLTE1Ny42MTUyMzQzNzUgLTM1Ljk5NzM5NDU2MTc2NzU4IEMtNjAuNTgyMjYwMjA1NTAyMzIgLTM1Ljk5NzM5NDU2MTc2NzU4LCAzNi40NTA3MTM5NjM5OTUzNTUgLTM1Ljk5NzM5NDU2MTc2NzU4LCAxNTcuNjE1MjM0Mzc1IC0zNS45OTczOTQ1NjE3Njc1OCI+PC9wYXRoPjwvZz48ZyBzdHlsZT0iIiBjbGFzcz0iZGl2aWRlciI+PHBhdGggc3R5bGU9IiIgZmlsbD0ibm9uZSIgc3Ryb2tlLXdpZHRoPSIxLjMiIHN0cm9rZT0iIzk5OSIgZD0iTS0xNTcuNjE1MjM0Mzc1IDM1Ljk5NzM5NDU2MTc2NzU4IEMtNzkuNjYwNzQ1NTA2NzYxMTUgMzUuOTk3Mzk0NTYxNzY3NTgsIC0xLjcwNjI1NjYzODUyMjI5MDggMzUuOTk3Mzk0NTYxNzY3NTgsIDE1Ny42MTUyMzQzNzUgMzUuOTk3Mzk0NTYxNzY3NTggTS0xNTcuNjE1MjM0Mzc1IDM1Ljk5NzM5NDU2MTc2NzU4IEMtMzIuNDcwNDczMTg0NjI0NzggMzUuOTk3Mzk0NTYxNzY3NTgsIDkyLjY3NDI4ODAwNTc1MDQ0IDM1Ljk5NzM5NDU2MTc2NzU4LCAxNTcuNjE1MjM0Mzc1IDM1Ljk5NzM5NDU2MTc2NzU4Ij48L3BhdGg+PC9nPjwvZz48L2c+PC9nPjwvZz48L3N2Zz4=;" vertex="1" parent="1">
                        <mxGeometry x="200" y="120" width="2572" height="715.9583129882812" as="geometry"/>
                    </mxCell>
                </UserObject>
            </root>
        </mxGraphModel>
    </diagram>
</mxfile>